<svg width="150" height="48" viewBox="0 0 150 48" fill="none" xmlns="http://www.w3.org/2000/svg">
<path d="M8.29315 20.5569C7.22301 21.6965 6.4305 23.054 5.95666 24.5179C4.57169 25.1261 2.76545 28.1674 2.76545 28.1674C3.05271 22.556 6.78251 21.0344 8.29315 20.5569Z" fill="#B71C1C"/>
<path d="M12.5231 18.186C11.7844 18.5225 11.1035 18.934 10.4854 19.4077C10.1949 19.3763 9.91344 19.357 9.64029 19.35C5.495 19.2327 3.32842 21.6516 3.26302 21.7253C6.82034 14.4096 12.5231 18.186 12.5231 18.186Z" fill="#B71C1C"/>
<path d="M27.743 20.7094C27.743 20.7094 27.3019 21.1453 26.6966 20.8171C26.0913 20.4889 26.2952 19.6294 26.2952 19.6294C27.3359 19.9294 27.743 20.7094 27.743 20.7094Z" fill="#B71C1C"/>
<path d="M27.1364 15.0845C26.385 14.5404 25.4867 13.9642 24.4819 13.4597C24.2729 13.3546 24.0587 13.2527 23.8407 13.1547C23.8407 13.1547 23.8407 13.154 23.8401 13.1534C23.8401 13.1534 23.8324 13.1457 23.8176 13.1309C23.7939 13.1047 23.7676 13.0777 23.7413 13.0508C23.7381 13.0476 23.7356 13.0444 23.7324 13.0412C23.474 12.7598 22.802 11.9548 22.298 10.6954C21.989 9.92239 21.7428 8.97829 21.6934 7.87972C21.6934 7.87972 22.7494 9.68909 23.7452 10.8806C24.7256 12.0535 27.064 14.9929 27.1364 15.0845Z" fill="#B71C1C"/>
<path d="M22.0858 12.4195C19.2883 11.1927 18.4611 10.3185 18.4611 10.3185C18.4611 10.3185 16.9787 9.11994 15.57 7.20096C15.2924 6.82217 15.0173 6.41581 14.7576 5.9851C13.7349 4.29238 12.9411 2.22278 13.1014 0C13.1014 0 14.3293 3.28802 16.3645 5.63258C16.4401 5.71911 16.5164 5.80499 16.594 5.88896C16.8556 6.17225 17.1653 6.49593 17.5103 6.84844C18.5669 7.92971 19.9442 9.27825 21.2131 10.5262C21.2715 10.7031 21.3356 10.8787 21.4048 11.0524C21.6158 11.5792 21.855 12.0362 22.0858 12.4195Z" fill="#B71C1C"/>
<path d="M31.1945 31.9073C30.7194 32.2694 29.2594 32.2354 28.2528 31.4093C27.7289 30.9798 27.2506 30.0236 26.737 28.9698C26.4664 29.1756 26.1913 29.3967 25.9182 29.63L25.9163 29.6313L25.915 29.6326C25.899 29.646 25.8823 29.6601 25.8662 29.6736C25.8714 29.6813 25.8759 29.689 25.8804 29.6967C25.9041 29.7364 25.9278 29.7768 25.9509 29.8172C25.9515 29.8185 25.9522 29.8191 25.9522 29.8197C25.9804 29.8678 26.0073 29.9165 26.0336 29.9659C26.0355 29.9697 26.0374 29.9736 26.04 29.9774C26.0637 30.0216 26.0868 30.0671 26.1099 30.1126C26.1368 30.1658 26.1638 30.2197 26.1894 30.2748C26.1894 30.2748 27.1095 32.0239 23.8657 31.7829C23.8657 31.7829 24.7903 33.061 27.4154 32.2694C27.4154 32.2694 27.5507 33.2308 26.9402 33.9884C26.3292 34.746 25.9554 35.21 25.9554 35.7753C25.9554 36.3413 26.0913 36.9066 27.0076 37.6533C27.0076 37.6533 26.3176 36.3637 27.1095 35.7645C27.902 35.1645 29.9045 34.0903 30.2212 32.7552C30.2212 32.7552 30.6739 33.4231 29.8936 34.6326C29.9346 34.6056 31.2952 33.6891 31.1945 31.9073Z" fill="#B71C1C"/>
<path d="M10.6207 13.6052C9.66594 13.3591 8.19633 12.8694 6.76392 11.9542C6.38241 11.7106 6.00346 11.4369 5.63799 11.1293C5.01603 10.6069 4.43255 9.98713 3.93755 9.25325C3.97794 9.28145 4.83714 9.89483 6.34201 10.4774C6.79661 10.6531 7.30957 10.8261 7.87702 10.9799C8.30598 11.096 8.76571 11.2011 9.2543 11.2876C9.67043 11.3613 10.0705 11.4594 10.4533 11.5754L10.5194 12.9322C10.5213 12.9707 10.536 13.2284 10.6207 13.6052Z" fill="#B71C1C"/>
<path d="M11.8062 16.8977C8.75353 15.6434 6.00346 16.0235 6.00346 16.0235C7.48846 14.8781 9.13183 14.5955 10.3405 14.5801C11.3023 15.5313 11.8062 16.8977 11.8062 16.8977Z" fill="#B71C1C"/>
<path d="M4.97692 34.5454C4.97628 34.5447 4.97564 34.5435 4.97499 34.5422C4.97115 34.5364 4.96409 34.5229 4.95255 34.5024C4.95063 34.4986 4.94806 34.4941 4.9455 34.4896C4.70698 34.039 3.23544 30.9536 5.4732 26.9643C5.38471 28.1187 5.48666 29.2993 5.79636 30.4588C4.90703 32.7495 4.97499 34.5037 4.97692 34.5454Z" fill="#B71C1C"/>
<path d="M26.7402 26.833C26.5857 26.9387 26.4324 27.0483 26.2843 27.1592C26.0548 26.7958 25.8098 26.4401 25.5405 26.0959C25.9701 26.2484 26.3728 26.5112 26.7402 26.833Z" fill="#B71C1C"/>
<path d="M32.2544 30.3806C32.0659 30.7433 31.7075 31.0029 31.3337 31.1651C30.6842 31.4445 30.0006 31.4234 29.3883 31.1888H29.3877C28.7978 30.9625 28.2726 30.5389 27.9052 29.9953C27.7334 29.7576 27.5878 29.4711 27.45 29.2121C27.3512 29.0288 27.2531 28.8461 27.1538 28.6641C27.1724 28.6513 27.1909 28.6378 27.2095 28.625C27.4192 28.477 27.6366 28.3334 27.8578 28.1962C27.8738 28.186 27.8898 28.1757 27.9065 28.1661C27.9835 28.277 28.0566 28.3866 28.1258 28.4949C28.3284 28.8051 28.4862 29.1442 28.6933 29.4512C28.7747 29.5768 28.8638 29.696 28.96 29.8076C29.2466 30.1389 29.6698 30.3312 30.1064 30.2915C30.2924 30.2748 30.4758 30.2287 30.645 30.1492C30.7823 30.0825 30.9041 29.9832 31.0169 29.8601C30.9765 30.0191 30.9099 30.1844 30.8047 30.3306C30.7015 30.4703 30.5784 30.5946 30.4424 30.7017C30.6899 30.7536 30.9496 30.7658 31.2163 30.735C31.5677 30.6965 31.9261 30.5985 32.2544 30.3806Z" fill="#B71C1C"/>
<path d="M9.45114 23.5776C9.44088 23.6039 9.42998 23.6302 9.41844 23.6565C9.2543 24.0346 9.03693 24.3557 8.80098 24.5922C8.77405 24.6191 8.74712 24.6454 8.71955 24.6698C8.66633 24.7191 8.61247 24.7627 8.55796 24.8018C8.4387 24.8883 8.31816 24.9524 8.20018 24.9909C8.0277 25.0467 7.86163 25.0479 7.71416 24.9838C7.51603 24.898 7.38074 24.7076 7.31149 24.4525C7.29931 24.4076 7.28905 24.3615 7.28071 24.3134C7.21147 23.9045 7.28777 23.368 7.51988 22.8328C7.92767 21.8945 8.64619 21.5989 9.18633 21.4901C9.01834 21.9368 8.97987 22.3919 9.05809 22.788C9.1017 23.0085 9.1812 23.2104 9.29469 23.3821C9.34086 23.4526 9.39344 23.518 9.45114 23.5776Z" fill="#B71C1C"/>
<path d="M9.03693 27.2284C8.99205 27.429 8.92793 27.6149 8.84778 27.7803C8.78559 27.9097 8.71313 28.0264 8.63234 28.1283C8.63234 28.1283 8.55989 28.2129 8.55989 28.2123V28.2129C8.40921 28.3776 8.23416 28.4917 8.04245 28.5411C7.98346 28.5571 7.92319 28.5661 7.86163 28.5686C7.47884 28.5846 7.12362 28.3443 6.8633 27.9463C6.76456 27.7956 6.67928 27.6213 6.61131 27.4303C6.51449 27.156 6.45358 26.8458 6.43947 26.5157C6.41254 25.8696 6.5722 25.2838 6.84535 24.8851C7.04219 25.2075 7.31918 25.4408 7.6603 25.537C7.83919 25.5876 8.02257 25.5972 8.20531 25.5697C8.23545 25.9081 8.31367 26.2196 8.43293 26.4862C8.50988 26.658 8.60349 26.8112 8.71313 26.9413C8.80931 27.056 8.91767 27.1528 9.03693 27.2284Z" fill="#B71C1C"/>
<path d="M11.3157 23.8289V23.8295C11.081 24.5371 10.9297 25.237 10.863 25.9273C10.8586 25.9754 10.8541 26.0228 10.8509 26.0702C10.788 26.1689 10.7207 26.26 10.6502 26.342C10.3315 26.7144 9.94614 26.9073 9.58323 26.8272C9.58259 26.8265 9.58195 26.8265 9.5813 26.8265C9.39728 26.7855 9.23891 26.6778 9.11003 26.5208V26.5202C9.07861 26.4824 9.04912 26.4413 9.02154 26.3978C8.94973 26.2837 8.8901 26.151 8.84458 26.0049C8.78687 25.819 8.75096 25.61 8.7407 25.3864C8.78238 25.3639 8.82406 25.3389 8.86509 25.3126C8.94973 25.2588 9.03245 25.1973 9.11259 25.1281C9.45948 24.8319 9.75827 24.4051 9.95448 23.893C10.3764 24.032 10.8553 23.9365 11.2817 23.6609C11.2952 23.7154 11.3067 23.7712 11.3157 23.8289Z" fill="#B71C1C"/>
<path d="M9.92755 31.1394C9.92626 31.2638 9.91729 31.383 9.90062 31.4952C9.87112 31.6887 9.8179 31.8611 9.74096 32.006C9.65761 32.1637 9.54668 32.2874 9.40818 32.3681C9.38446 32.3822 9.35945 32.395 9.3338 32.4066C8.97666 32.5655 8.52975 32.4328 8.10015 32.0893C7.96166 31.9791 7.82508 31.847 7.69364 31.6958C7.43268 31.3958 7.19287 31.0209 7.0018 30.5927C6.69915 29.9133 6.57733 29.2326 6.62734 28.6904C6.96332 29.0365 7.38523 29.2352 7.83534 29.2166C7.95845 29.2115 8.07771 29.1903 8.19249 29.1551C8.32329 29.53 8.51757 29.8588 8.75545 30.1203C8.87664 30.2543 9.01 30.3709 9.15235 30.4664C9.38446 30.6228 9.63965 30.7235 9.90639 30.7549C9.92113 30.8875 9.92819 31.0164 9.92755 31.1394Z" fill="#B71C1C"/>
<path d="M11.2106 29.1653C11.0464 29.6377 10.756 29.9915 10.3924 30.1267C10.3148 30.1556 10.234 30.1748 10.15 30.1825C10.0269 30.194 9.90575 30.1812 9.78777 30.1466C9.54155 30.0748 9.31072 29.9082 9.11708 29.6717C9.02796 29.5634 8.94652 29.4397 8.87471 29.3038V29.3031C8.8061 29.1743 8.74712 29.0339 8.69838 28.8846C8.8138 28.7936 8.92088 28.6859 9.0177 28.5641C9.11388 28.443 9.19979 28.3078 9.27353 28.1603C9.38895 27.9334 9.47487 27.6784 9.5268 27.4047C9.97499 27.4592 10.4354 27.2502 10.8252 26.8592C10.8323 27.3579 10.8868 27.8482 10.9868 28.3289V28.3295C11.0368 28.5725 11.099 28.8115 11.1734 29.0493C11.1856 29.0884 11.1977 29.1269 11.2106 29.1653Z" fill="#B71C1C"/>
<path d="M12.0961 33.2641C12.0608 33.2891 12.023 33.3116 11.9832 33.3308C11.8774 33.3827 11.7646 33.4103 11.6453 33.4154C11.5363 33.4205 11.4222 33.4071 11.3061 33.3763C11.1586 33.3379 11.0067 33.2712 10.8547 33.1808V33.1802C10.5803 33.0148 10.3058 32.7687 10.0571 32.4578C10.2122 32.2906 10.3296 32.0823 10.4072 31.8445C10.4482 31.7208 10.4783 31.5887 10.4976 31.4503C10.5303 31.2189 10.5322 30.9689 10.504 30.7094C10.9079 30.5959 11.2548 30.3209 11.5106 29.9415C11.6915 30.3472 11.9088 30.744 12.1615 31.1343C12.2833 31.3215 12.4128 31.5067 12.5507 31.6906C12.5526 31.6926 12.5539 31.6945 12.5558 31.697C12.6379 32.4021 12.4808 32.9943 12.0961 33.2641Z" fill="#B71C1C"/>
<path d="M11.8543 35.3536C11.7992 35.4523 11.728 35.5363 11.6395 35.6029C11.3394 35.8292 10.8996 35.8138 10.4258 35.6042C10.2635 35.5337 10.0975 35.4395 9.93139 35.3241C9.58002 35.0819 9.22993 34.7466 8.92088 34.3377C8.50154 33.782 8.23352 33.1904 8.13542 32.6726C8.67466 32.9277 9.22095 32.9712 9.66786 32.7495C10.0513 33.2526 10.5123 33.6199 10.9772 33.8025C11.158 33.8743 11.3401 33.9173 11.5177 33.9294C11.6305 33.9378 11.7421 33.9333 11.8505 33.916C11.8627 33.9519 11.8736 33.9871 11.8838 34.0224C11.9095 34.1102 11.9306 34.1967 11.9479 34.2813C11.9749 34.4172 11.9909 34.5486 11.9947 34.6729C12.0024 34.9376 11.9569 35.1703 11.8543 35.3536Z" fill="#B71C1C"/>
<path d="M17.0852 38.5128C16.9159 38.6064 16.721 38.6352 16.5132 38.6064C16.4863 38.6032 16.4594 38.598 16.4318 38.5923C16.2753 38.5602 16.1131 38.4974 15.9496 38.4064C15.6418 38.2366 15.3315 37.968 15.0532 37.6238V37.6232C15.1135 37.3591 15.1026 37.0668 15.0269 36.7637C14.9769 36.5656 14.8993 36.3631 14.7961 36.1612C14.7801 36.1291 14.7628 36.0977 14.7448 36.0657C15.1917 35.7125 15.3975 35.1043 15.3552 34.4159C16.0548 34.9953 16.6863 35.5754 17.2499 36.1561C17.3019 36.208 17.3519 36.2605 17.4019 36.3131C17.4493 36.4496 17.4885 36.5849 17.5186 36.7169C17.7065 37.5367 17.5616 38.2481 17.0852 38.5128Z" fill="#B71C1C"/>
<path d="M14.396 37.6905C14.3575 37.777 14.3056 37.8552 14.2408 37.9231C14.0094 38.1661 13.6458 38.2443 13.2258 38.1782C12.995 38.1423 12.7475 38.0622 12.4962 37.9424C12.1441 37.7744 11.7844 37.527 11.451 37.2098C11.1182 36.8925 10.8541 36.5458 10.6694 36.2035C11.1785 36.3054 11.6466 36.2285 11.9877 35.9439C12.0736 35.8721 12.148 35.7901 12.2115 35.6991C12.5641 35.9971 12.9482 36.2041 13.3259 36.3035H13.3265C13.4438 36.3349 13.5599 36.3554 13.6747 36.365C13.8721 36.3823 14.0639 36.3669 14.2447 36.3176C14.271 36.3721 14.2953 36.4259 14.3171 36.4797C14.5044 36.938 14.539 37.3706 14.396 37.6905Z" fill="#B71C1C"/>
<path d="M14.4582 35.6036C14.4543 35.6068 14.4499 35.6093 14.446 35.6119V35.6125C14.3646 35.6722 14.2742 35.7157 14.1767 35.7439C14.0978 35.7677 14.0145 35.7805 13.9273 35.7843C13.7946 35.7901 13.6535 35.7741 13.5086 35.7375V35.7369C13.1611 35.6491 12.7892 35.4427 12.4417 35.1389C12.4814 34.9415 12.4904 34.7268 12.4686 34.5005C12.4583 34.3864 12.4404 34.2698 12.4141 34.1512C12.3865 34.0211 12.3487 33.8884 12.3025 33.7545C12.7456 33.4968 13.0194 32.9898 13.1014 32.3649C13.4663 32.7777 13.8754 33.1808 14.328 33.5731C14.4511 33.6801 14.5775 33.7859 14.7076 33.8916C14.7281 33.9512 14.7461 34.0102 14.7621 34.0692C14.9384 34.7236 14.8455 35.3113 14.4582 35.6036Z" fill="#B71C1C"/>
<path d="M19.8929 39.8902C19.8968 40.0254 19.8916 40.1555 19.8775 40.2786C19.8166 40.8048 19.5903 41.215 19.2133 41.3829C19.1838 41.3958 19.1543 41.4073 19.1241 41.4175C19.0972 41.4259 19.0703 41.4336 19.0427 41.4393C18.9472 41.4611 18.8478 41.4669 18.7465 41.4586C18.6509 41.4515 18.5528 41.4316 18.4541 41.3996C18.0085 41.2567 17.5455 40.8727 17.1768 40.3273C17.2891 39.9549 17.3076 39.5261 17.2313 39.0807C17.2294 39.0653 17.2269 39.0499 17.223 39.0345C17.307 39.0038 17.3878 38.9647 17.4641 38.916C17.5475 38.8628 17.6231 38.8012 17.6904 38.7314C18.0463 38.366 18.1906 37.7815 18.1239 37.1175C18.8677 37.9994 19.4556 38.8807 19.8859 39.7594C19.8891 39.8037 19.8916 39.8472 19.8929 39.8902Z" fill="#B71C1C"/>
<path d="M20.6207 44.6735C20.5732 44.6889 20.5245 44.6998 20.4745 44.7049C19.7935 44.778 19.1363 43.8711 18.9914 42.6687C18.9914 42.6687 18.9914 42.6687 18.9914 42.668C18.9888 42.6501 18.9869 42.6321 18.985 42.6135C18.9613 42.3937 18.9568 42.1796 18.9683 41.9764C19.0183 41.9732 19.0677 41.9675 19.1171 41.9585C19.2293 41.9393 19.3383 41.9059 19.4441 41.8592C19.8679 41.6701 20.1641 41.2842 20.3187 40.7881C20.5463 41.4355 20.6874 42.0816 20.7412 42.7251C20.8021 43.4487 20.7425 44.1018 20.6207 44.6735Z" fill="#B71C1C"/>
<path d="M16.5728 40.3702C16.5171 40.5286 16.4369 40.6651 16.3324 40.7721C16.274 40.8317 16.2086 40.8824 16.1355 40.9227C16.0548 40.967 15.9695 40.9977 15.8791 41.015C15.7143 41.0464 15.5354 41.033 15.3501 40.9798C14.7673 40.8131 14.1241 40.2497 13.6766 39.4447C13.6157 39.3351 13.5605 39.2249 13.5112 39.1153C13.4432 38.9634 13.3855 38.8115 13.3393 38.6615C13.9472 38.7109 14.4794 38.5448 14.798 38.1513C15.184 38.5397 15.6104 38.8237 16.0278 38.9788C16.033 39.0063 16.0387 39.0339 16.0458 39.0614C16.0637 39.0422 16.0823 39.023 16.1009 39.005C16.267 39.0621 16.4311 39.098 16.5908 39.1114C16.6023 39.1608 16.6126 39.2101 16.6209 39.2589C16.6966 39.6787 16.6806 40.0652 16.5728 40.3702Z" fill="#B71C1C"/>
<path d="M18.3977 42.8943C18.1867 43.2385 17.8924 43.4628 17.5494 43.4993C17.18 43.5391 16.8203 43.3545 16.5299 43.0193C16.2183 42.661 15.9862 42.1309 15.9079 41.5201C16.1073 41.4836 16.2971 41.4111 16.4702 41.3009C16.501 41.2817 16.5305 41.2612 16.5594 41.24C16.6998 41.1362 16.8203 41.0112 16.9197 40.8683C17.3448 41.3945 17.8578 41.7604 18.3675 41.9079C18.3432 42.1649 18.3444 42.436 18.3739 42.7142C18.3804 42.7751 18.3881 42.8347 18.3977 42.8943Z" fill="#B71C1C"/>
<path d="M15.9894 43.325C15.3334 43.4327 14.4197 42.934 13.7433 42.0386C13.172 41.2817 12.9193 40.4395 13.0258 39.8338C13.0489 39.8716 13.0719 39.9094 13.0957 39.9472C13.6824 40.8702 14.5563 41.447 15.3661 41.5361C15.3674 41.5534 15.3693 41.5714 15.3713 41.5887C15.4437 42.2655 15.67 42.8693 15.9894 43.325Z" fill="#B71C1C"/>
<path d="M20.704 34.0173C19.7294 35.1812 17.5981 34.9633 17.5981 34.9633C16.9762 34.3576 16.2869 33.7545 15.5309 33.1552C15.1879 32.8834 14.8692 32.6065 14.5749 32.3239C14.5749 32.3239 16.4029 32.7085 17.8232 31.6906C18.7388 32.4976 19.7365 33.2436 20.704 34.0173Z" fill="#B71C1C"/>
<path d="M17.4679 31.3695C15.5886 32.395 13.5445 31.1599 13.499 31.1324C13.4983 31.1317 13.4983 31.1317 13.4983 31.1317C12.7469 30.1556 12.2608 29.1269 12.0448 28.052C12.0832 28.0988 13.4919 29.8076 15.6688 29.3506C16.1817 30.0896 16.7973 30.7504 17.4679 31.3695Z" fill="#B71C1C"/>
<path d="M15.3604 28.875C14.7589 28.9051 14.2472 28.7705 13.8164 28.5487C13.7785 28.5295 13.7407 28.5097 13.7042 28.4885C12.4468 27.7771 11.9249 26.342 11.9249 26.342C11.9364 26.1273 11.9858 25.8286 12.0396 25.5517L12.4192 25.4152C13.1399 25.1556 13.858 25.0326 14.1966 24.9851C14.2415 25.9215 14.4191 26.7554 14.6999 27.5104C14.7897 27.7521 14.8897 27.9847 14.9994 28.211C15.1103 28.4391 15.2308 28.6603 15.3604 28.875Z" fill="#B71C1C"/>
<path d="M25.5457 41.2195C24.5396 38.623 19.9045 37.6533 19.9045 37.6533C19.4095 36.9355 18.8209 36.2202 18.1399 35.5087C18.1399 35.5087 19.966 35.5594 21.124 34.3569C23.263 36.1106 25.1616 38.0667 25.5457 41.2195Z" fill="#B71C1C"/>
<path d="M25.6162 42.3245C25.663 47.9346 20.2257 48 20.2257 48C20.302 47.916 22.0922 45.9131 21.83 42.6629C21.7222 41.3297 21.292 39.9966 20.5424 38.6698C20.5424 38.6698 23.6009 38.5224 25.6117 42.0976C25.6143 42.1726 25.6155 42.2482 25.6162 42.3245Z" fill="#B71C1C"/>
<path d="M12.2615 21.2933C12.2083 21.6042 12.0858 21.9413 11.896 22.2701C11.7723 22.4842 11.6305 22.6758 11.4805 22.8386C11.3568 22.9726 11.2272 23.0873 11.0958 23.1809C10.7457 23.4308 10.3841 23.527 10.1013 23.4155C10.0725 23.4046 10.0449 23.3911 10.018 23.3757C9.86343 23.2866 9.75635 23.136 9.69608 22.9444C9.68133 22.8982 9.66979 22.8502 9.66081 22.7995V22.7989C9.63324 22.6463 9.63068 22.4739 9.65312 22.2906L9.66338 22.215C9.68967 22.0438 9.73711 21.8637 9.80636 21.6817C9.83393 21.6311 9.86343 21.5811 9.89549 21.5311C9.89549 21.5311 11.6774 21.3356 11.9364 21.3151L12.0326 21.3074L12.1352 21.3004C12.1768 21.2978 12.2185 21.2959 12.2615 21.2933Z" fill="#B71C1C"/>
<path d="M35.3309 27.6046C35.3309 27.6046 35.3302 27.6046 35.3296 27.6046C35.3302 27.6053 35.3315 27.6059 35.3334 27.6072V27.6066C35.3321 27.6053 35.3315 27.6053 35.3309 27.6046Z" fill="#B71C1C"/>
<path d="M35.3334 27.6066V27.6072C35.3315 27.6059 35.3302 27.6053 35.3296 27.6046C35.3302 27.6046 35.3309 27.6046 35.3309 27.6046C35.3315 27.6053 35.3321 27.6053 35.3334 27.6066Z" fill="#B71C1C"/>
<path d="M40 25.9427C40 31.283 37.9193 36.3028 34.1421 40.0793C31.8652 42.3552 29.1363 44.0146 26.1574 44.9741C26.2837 44.6293 26.3856 44.2543 26.4574 43.8461C33.7862 41.1971 39.0382 34.1711 39.0382 25.9427C39.0382 15.4492 30.4976 6.9119 20 6.9119C19.6493 6.9119 19.2998 6.92151 18.9536 6.94074C18.6888 6.67539 18.4355 6.41901 18.1983 6.17674C18.1534 6.13123 18.1098 6.08637 18.0668 6.04214C18.7054 5.98125 19.3505 5.95049 20 5.95049C25.3424 5.95049 30.3642 8.03034 34.1421 11.8061C37.9193 15.5825 40 20.6024 40 25.9427Z" fill="#B71C1C"/>
<path d="M13.54 44.8735C10.679 43.9012 8.05784 42.2777 5.85791 40.0793C2.08066 36.3028 0 31.283 0 25.9427C0 20.7934 1.93447 15.9421 5.45909 12.2163C5.71044 12.4073 5.97397 12.5906 6.24647 12.7643C6.25289 12.7682 6.2593 12.7727 6.26571 12.7765C2.98217 16.1978 0.961785 20.8389 0.961785 25.9427C0.961785 33.4776 5.36484 40.0036 11.7344 43.0846C11.8037 43.1872 11.8761 43.2891 11.9518 43.3897C12.4147 44.0025 12.9578 44.505 13.54 44.8735Z" fill="#B71C1C"/>
<path d="M35.7303 27.1118C35.7476 27.0579 35.763 27.0015 35.7771 26.9419L35.5816 26.7099C35.6989 26.5336 36.0541 26.1215 36.0317 24.9569C36.0092 23.7917 35.6354 23.3392 35.1827 23.0623C35.159 23.0476 35.1353 23.0354 35.1122 23.0251C35.043 22.9937 34.9763 22.9803 34.9128 22.9803C34.764 22.9803 34.6345 23.0559 34.5403 23.1559C34.5339 23.1623 34.5274 23.1687 34.5217 23.1757C34.4249 23.2853 34.3684 23.4174 34.3684 23.509C34.3684 23.509 31.5055 21.1395 30.6515 20.387L30.6681 20.212C30.6681 20.212 31.3754 19.5839 30.8662 18.063C30.3571 16.5414 27.9245 15.3653 27.9245 15.3653C27.9245 15.3653 28.2611 15.7344 28.6221 16.2626C28.6227 16.2632 28.6234 16.2645 28.6234 16.2645C28.9459 16.7401 29.2896 17.3426 29.4236 17.9213C29.4236 17.9213 26.7626 15.1332 23.0662 13.6706C19.5691 12.2868 18.449 11.2261 18.3387 11.1177C18.4599 11.2671 19.8461 12.9387 22.3634 15.1326C22.2935 15.0954 18.2861 12.4464 14.4101 10.2339C14.1825 10.0852 13.9786 9.90829 13.7837 9.71088C13.3226 9.243 12.9508 8.67576 12.6526 8.07713C12.4897 7.75345 12.3577 7.38812 12.2063 7.05803C11.5376 5.62809 10.4219 4.38723 9.03565 3.63157C9.54091 4.19239 9.96345 4.80513 10.3276 5.45953C10.7444 6.22545 11.0419 7.00547 11.2042 7.83421C11.2593 8.08225 11.3241 8.33094 11.4023 8.5745C11.4068 8.58795 11.4113 8.60077 11.4157 8.61423C11.0054 8.40016 10.5713 8.12263 10.1052 7.83485C7.59874 6.28826 4.42293 3.94499 3.10657 1.36456C3.10657 1.36456 3.13798 5.42299 8.36561 8.90202C8.76763 9.16929 9.1998 9.43335 9.66466 9.69165H9.6653C9.76853 9.74934 9.8724 9.80638 9.97884 9.86279C16.8126 13.5046 20.6527 16.5209 22.2519 17.7726C22.2519 17.7726 22.2512 17.7726 22.2499 17.7726C22.2416 17.7726 22.2108 17.772 22.1595 17.7669C22.1454 17.7656 22.13 17.7637 22.1127 17.7611C22.0954 17.7585 22.0768 17.756 22.0569 17.7528C22.0307 17.7483 22.0012 17.7425 21.9697 17.7361C21.9364 17.729 21.9005 17.7207 21.8614 17.7111C21.8447 17.7066 21.828 17.7021 21.8107 17.697C21.762 17.6835 21.7101 17.6675 21.6536 17.6489C21.6203 17.6374 21.5857 17.6252 21.5498 17.6117C21.4901 17.5893 21.4273 17.5637 21.3612 17.5348C21.3478 17.5291 21.3343 17.5233 21.3209 17.5169C21.2939 17.5047 21.2664 17.4919 21.2388 17.4784C21.183 17.4515 21.1246 17.4227 21.0657 17.3906C21.0355 17.3746 21.0054 17.3579 20.9746 17.3406C20.9131 17.306 20.8502 17.2688 20.7855 17.2285C20.7528 17.208 20.7201 17.1868 20.6867 17.1657C20.5373 17.0676 20.3796 16.9541 20.2148 16.8228C20.2148 16.8228 20.4867 17.7874 21.0445 18.3911C21.0445 18.3911 20.3661 18.1348 19.9134 17.3201C19.589 16.7362 19.1017 16.4472 18.5131 16.2248C18.2803 16.1363 18.0322 16.0588 17.7712 15.978C17.65 15.9402 17.4833 15.887 17.2814 15.819C16.5998 15.5902 15.5142 15.1954 14.4043 14.6769C13.9459 14.4635 13.4829 14.2282 13.0431 13.9751C13.0431 13.9751 13.0431 13.9751 13.0424 13.9751C12.4615 13.6411 11.921 13.2758 11.4799 12.8861C11.4799 12.8861 11.4991 13.2848 11.6799 13.8276C11.6806 13.8276 11.6806 13.8276 11.6806 13.8276C11.7511 14.0404 11.8466 14.275 11.9761 14.5173C12.0178 14.5968 12.064 14.6762 12.1134 14.7564C12.8745 16.1658 13.892 17.306 14.8602 18.154C15.1526 18.4104 15.4399 18.6392 15.7149 18.8417C15.974 19.0321 16.2215 19.1987 16.451 19.341C16.4844 19.3615 16.5177 19.3814 16.551 19.4C16.6184 19.4378 16.6857 19.4718 16.753 19.5032C16.7697 19.5109 16.787 19.5185 16.8037 19.5256C16.8377 19.5403 16.871 19.5538 16.905 19.5673C16.9556 19.5865 17.0063 19.6044 17.0569 19.6211C17.107 19.6371 17.1576 19.6519 17.2076 19.6653C17.2749 19.6826 17.341 19.698 17.407 19.7102C17.4397 19.7166 17.4724 19.7224 17.5051 19.7275C17.5327 19.732 17.5603 19.7358 17.5878 19.7397C17.7379 19.7589 17.8834 19.7672 18.0213 19.7672C18.1874 19.7672 18.3425 19.7557 18.4823 19.7377C18.5169 19.7333 18.5509 19.7288 18.5836 19.7236C18.633 19.716 18.6798 19.7076 18.724 19.6993C18.751 19.6942 18.7766 19.689 18.8016 19.6833C18.8318 19.6769 18.86 19.6705 18.8863 19.664C18.9106 19.6583 18.9337 19.6525 18.9555 19.6467C18.9882 19.6384 19.0177 19.6301 19.0433 19.6224C19.0607 19.6173 19.0767 19.6128 19.0908 19.6083C19.1472 19.5903 19.178 19.5788 19.178 19.5788C19.0292 19.366 18.2906 18.5847 16.7383 17.7867C16.6382 17.7361 16.535 17.6842 16.4279 17.6329C16.1817 17.515 15.9496 17.3823 15.7316 17.2413C14.4351 16.4055 13.6573 15.2851 13.6028 15.2057C13.6548 15.2627 14.2286 15.8767 15.738 16.5023C15.924 16.5792 16.1028 16.6497 16.274 16.7164C16.6959 16.8798 17.0723 17.017 17.4077 17.1599C18.0931 17.4515 18.6048 17.7649 18.9741 18.3681C19.5967 19.3865 20.6258 20.0986 20.6258 20.0986C20.5482 20.1121 20.454 20.1236 20.3495 20.1326C20.3148 20.1358 20.2789 20.139 20.2424 20.1415C20.1327 20.1499 20.0154 20.1563 19.8968 20.1614C19.8577 20.1627 19.8179 20.1646 19.7788 20.1659C19.4633 20.1768 19.1575 20.1787 18.9876 20.1787C18.901 20.1787 18.8497 20.1781 18.8497 20.1781C19.4043 21.0376 21.4747 21.8522 21.4747 21.8522C21.4747 21.8522 20.343 21.8067 19.11 21.0376C18.0264 20.362 16.637 19.782 15.0423 19.6134C14.8217 19.5897 14.5973 19.5743 14.3691 19.5673C14.3312 19.566 14.2934 19.5653 14.2556 19.5653C14.0542 19.5653 13.8497 19.5807 13.6452 19.6096C13.0412 19.6916 12.4372 19.8813 11.912 20.0903C11.8787 20.1031 11.846 20.1165 11.8139 20.1294C11.5741 20.2281 11.3523 20.3287 11.1567 20.4242C11.1163 20.4434 11.0772 20.4627 11.0394 20.4819C11.0201 20.4915 11.0015 20.5011 10.9829 20.5101C10.9464 20.5287 10.9105 20.5473 10.8765 20.5652C10.8252 20.5921 10.7765 20.6178 10.731 20.6421C10.7002 20.6581 10.6713 20.6742 10.6438 20.6895C10.6027 20.712 10.5642 20.7331 10.5303 20.753C10.5181 20.7594 10.5072 20.7658 10.4963 20.7722C10.4642 20.7902 10.4354 20.8068 10.411 20.8216C10.4027 20.8267 10.395 20.8312 10.3873 20.8357C10.3725 20.8447 10.3591 20.8523 10.3475 20.8594C10.3366 20.8658 10.327 20.8716 10.3193 20.8767C10.3071 20.8837 10.3001 20.8882 10.2969 20.8902C10.2975 20.8902 10.2982 20.8902 10.2982 20.8902C10.2994 20.8895 10.3014 20.8895 10.3033 20.8889C10.3103 20.8876 10.3238 20.885 10.3424 20.8812C10.3495 20.8799 10.3565 20.8786 10.3642 20.8773C10.3738 20.8754 10.3841 20.8735 10.3956 20.8709C10.4059 20.869 10.4161 20.8671 10.427 20.8658C10.4341 20.8645 10.4411 20.8632 10.4482 20.8613C10.4719 20.8575 10.4988 20.8523 10.5283 20.8472C10.5533 20.8434 10.5803 20.8389 10.6085 20.8338C10.6341 20.8293 10.6611 20.8248 10.6899 20.8203C10.7111 20.8171 10.7329 20.8139 10.7553 20.81C10.7662 20.8081 10.7765 20.8068 10.7874 20.8049C10.831 20.7985 10.8771 20.7915 10.9252 20.7844C10.9733 20.7774 11.024 20.7703 11.0759 20.7633C11.3112 20.7312 11.5876 20.6998 11.8857 20.6761C11.9184 20.6735 11.9518 20.671 11.9851 20.6684C12.021 20.6658 12.0576 20.6633 12.0941 20.6607C12.1499 20.6575 12.2057 20.6543 12.2628 20.6517H12.2685C12.2705 20.6511 12.273 20.6511 12.2749 20.6511C12.3166 20.6485 12.3583 20.6472 12.4 20.6453C12.5391 20.6402 12.6802 20.637 12.8225 20.637C12.852 20.637 12.8815 20.637 12.911 20.6376C12.9783 20.6376 13.0463 20.6396 13.1136 20.6415C13.4438 20.6524 13.7856 20.7043 14.137 20.7889C15.2667 21.0613 16.4921 21.6715 17.718 22.3271C18.0303 22.4938 18.3143 22.6213 18.5701 22.7181C18.6272 22.7393 18.6824 22.7598 18.7362 22.7784C18.7907 22.797 18.8427 22.8136 18.8939 22.8296C19.0472 22.8771 19.1876 22.913 19.3146 22.9399C19.3569 22.9489 19.3979 22.9565 19.437 22.9636C19.6538 23.0021 19.8256 23.013 19.9506 23.013C20.0321 23.013 20.093 23.0085 20.134 23.0033C20.1443 23.0021 20.1532 23.0008 20.1616 23.0001C20.1731 22.9988 20.1815 22.9969 20.1872 22.9963C20.1904 22.9956 20.1924 22.995 20.1943 22.995C20.0622 23.0578 19.9301 23.104 19.7961 23.1379C19.7512 23.1488 19.7063 23.1584 19.6608 23.1674C19.4787 23.2014 19.2908 23.2142 19.0889 23.2142C18.4259 23.2142 17.6173 23.0732 16.3997 23.0732C16.208 23.0732 16.0067 23.0764 15.7944 23.0847C13.4368 23.1738 12.232 24.7723 12.2018 24.8121C13.0123 24.5204 13.8055 24.3897 14.187 24.3397C14.3357 24.3198 14.4216 24.3121 14.4216 24.3121C14.4216 24.3121 14.4319 24.3115 14.4511 24.3115C14.4588 24.3109 14.4678 24.3109 14.4781 24.3109C14.5255 24.3096 14.5999 24.3083 14.6935 24.3083C14.8301 24.3083 15.0083 24.3109 15.2039 24.3211C15.2398 24.323 15.2757 24.325 15.3123 24.3275C15.3854 24.332 15.4604 24.3378 15.5354 24.3448C15.5732 24.3487 15.6111 24.3525 15.6489 24.3564C15.6675 24.3583 15.6867 24.3608 15.7053 24.3628C15.781 24.3724 15.856 24.3826 15.9297 24.3948C16.0772 24.4198 16.2189 24.4512 16.3452 24.491C17.0621 24.7172 18.7362 25.4639 20.5848 25.5697C20.5848 25.5697 17.2371 25.9164 15.8182 27.3105C15.8226 27.3092 15.8374 27.3047 15.8618 27.297C15.8714 27.2938 15.8829 27.2906 15.8951 27.2867C16.0368 27.2451 16.3625 27.1534 16.8171 27.0566C16.8582 27.0477 16.9005 27.0393 16.9441 27.0304C16.9659 27.0259 16.9877 27.0214 17.0101 27.0169C17.0544 27.0079 17.0999 26.9996 17.1467 26.9906C17.1929 26.9816 17.2403 26.9733 17.2884 26.9643C17.9642 26.8432 18.8209 26.7368 19.7435 26.7368C20.0154 26.7368 20.2924 26.7458 20.5726 26.7669C20.6662 26.774 20.7598 26.7817 20.8541 26.7913C20.9477 26.8009 21.0419 26.8118 21.1362 26.8246C21.2304 26.8368 21.3247 26.8509 21.419 26.8663C21.6081 26.897 21.7966 26.9336 21.9845 26.9778C22.0787 26.9996 22.1724 27.0233 22.2653 27.049C22.5455 27.1252 22.8225 27.2182 23.0944 27.329C23.2297 27.3848 23.3643 27.4451 23.4964 27.5104C23.7176 27.6187 23.9331 27.7412 24.1421 27.879C24.194 27.9129 24.2453 27.9482 24.2966 27.9847C24.3934 28.0527 24.4883 28.1238 24.5813 28.1994C24.6018 28.2161 24.6223 28.2328 24.6429 28.2494C24.6974 28.2949 24.7512 28.3411 24.8044 28.3885C24.8051 28.3885 24.8051 28.3885 24.8051 28.3885C25.1706 28.0546 25.5136 27.761 25.8547 27.4899C25.8874 27.4643 25.9195 27.4386 25.9522 27.413C25.8477 27.2201 25.7406 27.0316 25.6303 26.8496C25.4809 26.6022 25.3257 26.367 25.1635 26.1504C23.9382 24.5134 21.6498 23.3148 21.5786 23.2777C21.6299 23.2854 23.6471 23.2091 26.5908 23.8577C27.4641 24.05 28.69 24.5525 29.8403 25.3312C30.0776 25.4908 30.3116 25.662 30.5386 25.8433C29.4223 26.0087 28.3611 26.5535 27.4263 27.1445C27.3852 27.1714 27.3442 27.1983 27.3032 27.2252C27.2711 27.2464 27.239 27.2682 27.207 27.2899C27.0069 27.4252 26.8107 27.5649 26.6184 27.7098C26.4959 27.8014 26.3741 27.8956 26.2542 27.9911C25.9118 28.2635 25.5803 28.5494 25.2565 28.8442C25.2289 28.8692 25.2013 28.8942 25.1744 28.9192L24.7602 29.3128C24.7467 29.3262 24.7326 29.3397 24.7185 29.3531C23.9408 30.103 22.9738 30.6914 21.8941 30.8561C21.662 30.8907 21.4305 30.9074 21.2009 30.9074C20.9502 30.9074 20.7015 30.8875 20.4559 30.8504C20.3943 30.8408 20.3328 30.8305 20.2719 30.819C20.211 30.8074 20.15 30.7946 20.0891 30.7811C19.9679 30.7536 19.8474 30.7222 19.7281 30.6869C19.6679 30.669 19.6082 30.6504 19.5492 30.6312C19.1338 30.494 18.7304 30.3113 18.3432 30.0941C18.2329 30.0319 18.1232 29.9671 18.0155 29.8999C17.9617 29.8659 17.9078 29.8319 17.8546 29.7967C17.8014 29.762 17.7488 29.7262 17.6962 29.6903C17.6436 29.6537 17.591 29.6172 17.5398 29.58C17.4878 29.5428 17.4365 29.5057 17.3859 29.4672C17.3096 29.4095 17.2339 29.3512 17.1595 29.2916C17.1345 29.2724 17.1095 29.2519 17.0852 29.232C17.0358 29.1923 16.987 29.1512 16.9383 29.1102C16.8902 29.0692 16.8421 29.0282 16.7947 28.9865C16.7383 28.9372 16.6818 28.8865 16.6267 28.8359C16.5889 28.8019 16.5517 28.7673 16.5151 28.7321C16.4465 28.668 16.3786 28.6026 16.3125 28.5366C16.2901 28.5148 16.2683 28.493 16.2465 28.4706C16.1593 28.3827 16.074 28.2937 15.9906 28.2039C16.2317 28.4949 16.4965 28.766 16.7729 29.0243C18.095 30.2652 19.714 31.1266 21.3786 31.1266C21.4914 31.1266 21.6049 31.1228 21.7184 31.1144C21.7748 31.1106 21.8319 31.1055 21.8883 31.0991C22.3987 31.0439 22.9116 30.9036 23.4188 30.6645C23.4753 30.6382 23.531 30.6107 23.5875 30.5812C23.6439 30.5523 23.6997 30.5222 23.7561 30.4902C23.8677 30.4273 23.9792 30.3588 24.0908 30.2857C24.4236 30.078 24.7442 29.8101 25.05 29.5403C25.1789 29.4275 25.3052 29.3134 25.429 29.2044C25.4533 29.1833 25.4777 29.1628 25.5021 29.1423C25.8098 28.8801 26.1259 28.6263 26.4504 28.384C26.5793 28.2866 26.7101 28.1917 26.8421 28.0995C27.064 27.9431 27.2897 27.7937 27.5192 27.6521C27.5192 27.6514 27.5199 27.6514 27.5199 27.6514C27.5737 27.6181 27.627 27.5854 27.6808 27.5534C27.7398 27.5188 27.8001 27.4841 27.8616 27.4489C27.9232 27.4143 27.9854 27.379 28.0489 27.3444C28.4945 27.1015 28.9914 26.8669 29.5031 26.6932C29.5768 26.6682 29.6499 26.6452 29.7236 26.6227C29.7974 26.6003 29.8711 26.5804 29.9449 26.5606C30.8996 26.3048 31.8806 26.5099 31.8806 26.5099C31.8806 26.7682 31.5671 26.9618 31.5671 26.9618C31.7588 27.0464 31.9447 27.1066 32.1146 27.1489C32.3256 27.2034 32.3589 27.1938 32.5423 27.2246C32.3551 27.4117 31.9979 27.4547 31.9979 27.4547C32.064 27.5175 32.1377 27.5707 32.2172 27.6162C32.2435 27.6316 32.2705 27.6457 32.298 27.6591C32.4077 27.7123 32.5256 27.7527 32.6455 27.7822C32.6757 27.7899 32.7058 27.7963 32.736 27.8027C32.7661 27.8085 32.7962 27.8142 32.8264 27.8194C32.9014 27.8315 32.9758 27.8405 33.0489 27.8469C33.0739 27.8488 33.0982 27.8508 33.1226 27.852C33.1989 27.8572 33.272 27.8591 33.3412 27.8591C33.4336 27.8591 33.5189 27.8559 33.5913 27.8508C33.6349 27.8482 33.674 27.845 33.7086 27.8412C33.7086 27.8412 33.701 28.418 32.9334 29.3172C32.9334 29.3172 34.3139 29.0532 34.6454 28.1635C34.8269 28.5731 34.6531 29.1961 34.6461 29.2262C35.4309 28.6526 35.4309 27.6835 35.4309 27.6835C35.8566 28.0616 35.9579 28.6904 35.9631 29.2506C35.9599 29.9287 35.6072 30.5491 35.2077 31.0939C34.3864 32.2053 33.1271 33.3955 33.5971 34.9274C33.247 33.3943 34.5582 32.3425 35.4604 31.2933C35.9458 30.7311 36.3869 30.0441 36.4446 29.2762C36.5042 28.5135 36.3613 27.6143 35.7303 27.1118ZM28.0828 21.1581C28.0828 21.1581 28.0604 21.1888 28.0136 21.235C28.0021 21.2465 27.9886 21.2593 27.9732 21.2728C27.9585 21.2856 27.9418 21.2997 27.9238 21.3145C27.8507 21.3721 27.752 21.4375 27.6238 21.4952C27.5923 21.5099 27.5583 21.524 27.5224 21.5369C27.4513 21.5638 27.3724 21.5875 27.2865 21.6061C27.1563 21.6343 27.0095 21.6516 26.8441 21.6516C26.5626 21.6516 26.2272 21.6016 25.8329 21.4689C25.7765 21.4497 25.7188 21.4292 25.6598 21.4068C25.4245 21.3177 25.1699 21.1997 24.8948 21.0472C24.8256 21.0094 24.7557 20.969 24.6845 20.9267C24.6127 20.8844 24.5403 20.8395 24.4659 20.7921C24.3922 20.7453 24.3165 20.696 24.2395 20.644C24.1632 20.5921 24.085 20.5383 24.0055 20.4812C24.0171 20.4857 24.0536 20.4992 24.1075 20.5197C24.1184 20.5235 24.1299 20.528 24.1421 20.5325C24.2633 20.5774 24.4505 20.6453 24.6506 20.712C24.6704 20.7184 24.6903 20.7254 24.7108 20.7318C24.7711 20.7517 24.832 20.7709 24.8923 20.7895C24.9224 20.7991 24.9526 20.8081 24.982 20.8164C25.0019 20.8222 25.0212 20.828 25.0404 20.8331C25.1468 20.8632 25.2462 20.8882 25.3296 20.9036C25.345 20.9068 25.3597 20.9094 25.3738 20.9113C25.4161 20.9177 25.4533 20.9216 25.4841 20.9216C25.5155 20.9216 25.5399 20.9177 25.5559 20.9094C25.5559 20.9094 25.1635 19.7333 24.8012 19.2506C24.4402 18.7686 23.5509 18.6623 23.1431 18.3008C23.1489 18.302 23.1739 18.3072 23.2162 18.3149C23.2278 18.3174 23.2412 18.3193 23.256 18.3219C23.3521 18.3386 23.5047 18.361 23.699 18.3777C23.7292 18.3802 23.7599 18.3822 23.792 18.3847C23.9202 18.3937 24.0626 18.3995 24.2178 18.3995C24.2601 18.3995 24.3043 18.3988 24.3486 18.3982C24.3768 18.3975 24.4063 18.3975 24.437 18.3975C24.6185 18.3975 24.832 18.4091 25.0622 18.4379C25.1199 18.445 25.1789 18.4539 25.2385 18.4636C25.2982 18.4732 25.3591 18.4841 25.42 18.4962C25.4815 18.5084 25.5431 18.5219 25.6053 18.5373C26.1663 18.6731 26.762 18.927 27.2301 19.3788C27.3596 19.5038 27.4891 19.6243 27.6167 19.7377C27.6597 19.7756 27.702 19.8127 27.7443 19.8486C27.786 19.8845 27.8283 19.9198 27.87 19.9537C27.9116 19.9877 27.9533 20.021 27.9944 20.0531C28.0976 20.1326 28.1983 20.2056 28.297 20.2704C28.3361 20.296 28.3752 20.3204 28.4137 20.3434C28.665 20.4928 28.8972 20.5806 29.0998 20.5806C29.2261 20.5806 29.3402 20.5466 29.4409 20.4723C29.9256 20.1121 29.6589 19.4237 29.6448 19.3878C29.6768 19.4224 30.5194 20.3531 29.3428 21.2414C29.3428 21.2414 30.1494 22.2066 30.7758 22.6585C30.7758 22.6585 29.916 22.3573 28.0828 21.1581ZM33.4951 26.0183C33.2816 25.8792 33.0322 25.7562 32.7674 25.7049C32.7674 25.7049 32.6693 25.8523 32.7052 26.0106C32.7052 26.0106 32.65 25.9805 32.5917 25.9228C32.4923 25.8241 32.3827 25.6447 32.5186 25.3928C32.5231 25.3838 32.5282 25.3755 32.5333 25.3665C32.5455 25.3466 32.5583 25.3274 32.5725 25.3101C32.5866 25.2928 32.6013 25.2761 32.6167 25.2614C32.711 25.1729 32.8328 25.1313 32.9604 25.1313C33.1271 25.1313 33.3041 25.2024 33.4406 25.3319C33.4477 25.3383 33.4547 25.3453 33.4611 25.3524C33.481 25.3723 33.4996 25.394 33.5176 25.4165C33.5413 25.4472 33.5625 25.4799 33.5817 25.5145C33.6009 25.5498 33.6176 25.5863 33.6317 25.6254C33.64 25.5722 33.6439 25.5184 33.6439 25.4633C33.6439 24.8499 33.147 24.3525 32.5333 24.3525C32.0262 24.3525 31.5985 24.6922 31.4664 25.1569C31.4376 25.2543 31.4228 25.3569 31.4228 25.4633C31.4228 25.5806 31.4408 25.6934 31.4747 25.7991C31.4946 25.8632 31.5209 25.9247 31.5517 25.9831C31.4792 25.976 31.3119 25.9299 31.1644 25.7921C31.0265 25.6645 30.9066 25.4562 30.9002 25.1268C30.8996 25.1172 30.8996 25.1069 30.8996 25.0966C30.8996 24.3576 31.4991 23.7584 32.239 23.7584C32.239 23.7584 32.2551 23.7571 32.2839 23.7571C32.3089 23.7571 32.3442 23.7584 32.3865 23.7628C32.4006 23.7641 32.416 23.7661 32.432 23.768C32.5115 23.7795 32.6116 23.8013 32.7231 23.8436C32.7456 23.8519 32.7687 23.8609 32.7917 23.8712C32.8494 23.8968 32.9104 23.9276 32.9719 23.9647C33.0091 23.9872 33.0469 24.0122 33.0848 24.0397C33.1046 24.0538 33.1245 24.0692 33.1444 24.0852C33.1758 24.1096 33.2072 24.1359 33.238 24.1647C33.2508 24.1763 33.2637 24.1884 33.2765 24.2013C33.3278 24.2506 33.3784 24.3051 33.4291 24.3666C33.4541 24.3967 33.4791 24.4288 33.5041 24.4628C33.8132 24.8826 34.0844 25.5524 34.1857 26.6176C34.1857 26.6176 33.9074 26.2869 33.4951 26.0183ZM35.3334 27.6072C35.3315 27.6059 35.3302 27.6053 35.3296 27.6046C35.3302 27.6046 35.3309 27.6046 35.3309 27.6046C35.3315 27.6053 35.3321 27.6053 35.3334 27.6066V27.6072Z" fill="#B71C1C"/>
<path d="M46.032 22.5L51.152 11.3H52.32L57.44 22.5H56.192L51.488 11.988H51.968L47.264 22.5H46.032ZM48.048 19.508L48.4 18.548H54.912L55.264 19.508H48.048ZM62.3808 22.596C61.5488 22.596 60.7488 22.4627 59.9808 22.196C59.2234 21.9187 58.6368 21.5667 58.2208 21.14L58.6848 20.228C59.0794 20.612 59.6074 20.9373 60.2688 21.204C60.9408 21.46 61.6448 21.588 62.3808 21.588C63.0848 21.588 63.6554 21.5027 64.0928 21.332C64.5408 21.1507 64.8661 20.9107 65.0688 20.612C65.2821 20.3133 65.3888 19.9827 65.3888 19.62C65.3888 19.1827 65.2608 18.8307 65.0048 18.564C64.7594 18.2973 64.4341 18.0893 64.0288 17.94C63.6234 17.78 63.1754 17.6413 62.6848 17.524C62.1941 17.4067 61.7034 17.284 61.2128 17.156C60.7221 17.0173 60.2688 16.836 59.8528 16.612C59.4474 16.388 59.1168 16.0947 58.8608 15.732C58.6154 15.3587 58.4928 14.8733 58.4928 14.276C58.4928 13.7213 58.6368 13.2147 58.9248 12.756C59.2234 12.2867 59.6768 11.9133 60.2848 11.636C60.8928 11.348 61.6714 11.204 62.6208 11.204C63.2501 11.204 63.8741 11.2947 64.4928 11.476C65.1114 11.6467 65.6448 11.8867 66.0928 12.196L65.6927 13.14C65.2128 12.82 64.7008 12.5853 64.1568 12.436C63.6234 12.2867 63.1061 12.212 62.6048 12.212C61.9328 12.212 61.3781 12.3027 60.9408 12.484C60.5034 12.6653 60.1781 12.9107 59.9648 13.22C59.7621 13.5187 59.6608 13.86 59.6608 14.244C59.6608 14.6813 59.7834 15.0333 60.0288 15.3C60.2848 15.5667 60.6154 15.7747 61.0208 15.924C61.4368 16.0733 61.8901 16.2067 62.3808 16.324C62.8714 16.4413 63.3568 16.5693 63.8368 16.708C64.3274 16.8467 64.7754 17.028 65.1808 17.252C65.5968 17.4653 65.9274 17.7533 66.1728 18.116C66.4288 18.4787 66.5568 18.9533 66.5568 19.54C66.5568 20.084 66.4074 20.5907 66.1088 21.06C65.8101 21.5187 65.3514 21.892 64.7328 22.18C64.1248 22.4573 63.3408 22.596 62.3808 22.596ZM69.1365 22.5V11.3H70.3205V22.5H69.1365ZM72.1726 22.5L77.2926 11.3H78.4606L83.5806 22.5H82.3326L77.6286 11.988H78.1086L73.4046 22.5H72.1726ZM74.1886 19.508L74.5406 18.548H81.0526L81.4046 19.508H74.1886ZM90.1411 22.596C89.2985 22.596 88.5198 22.4573 87.8051 22.18C87.0905 21.892 86.4718 21.492 85.9491 20.98C85.4265 20.468 85.0158 19.8653 84.7171 19.172C84.4291 18.4787 84.2851 17.7213 84.2851 16.9C84.2851 16.0787 84.4291 15.3213 84.7171 14.628C85.0158 13.9347 85.4265 13.332 85.9491 12.82C86.4825 12.308 87.1065 11.9133 87.8211 11.636C88.5358 11.348 89.3145 11.204 90.1571 11.204C90.9678 11.204 91.7305 11.3427 92.4451 11.62C93.1598 11.8867 93.7625 12.292 94.2531 12.836L93.5011 13.588C93.0425 13.1187 92.5358 12.7827 91.9811 12.58C91.4265 12.3667 90.8291 12.26 90.1891 12.26C89.5171 12.26 88.8931 12.3773 88.3171 12.612C87.7411 12.836 87.2398 13.1613 86.8131 13.588C86.3865 14.004 86.0505 14.4947 85.8051 15.06C85.5705 15.6147 85.4531 16.228 85.4531 16.9C85.4531 17.572 85.5705 18.1907 85.8051 18.756C86.0505 19.3107 86.3865 19.8013 86.8131 20.228C87.2398 20.644 87.7411 20.9693 88.3171 21.204C88.8931 21.428 89.5171 21.54 90.1891 21.54C90.8291 21.54 91.4265 21.4333 91.9811 21.22C92.5358 21.0067 93.0425 20.6653 93.5011 20.196L94.2531 20.948C93.7625 21.492 93.1598 21.9027 92.4451 22.18C91.7305 22.4573 90.9625 22.596 90.1411 22.596ZM96.7771 22.5V11.3H100.969C101.918 11.3 102.734 11.4547 103.417 11.764C104.1 12.0627 104.622 12.5 104.985 13.076C105.358 13.6413 105.545 14.3293 105.545 15.14C105.545 15.9293 105.358 16.612 104.985 17.188C104.622 17.7533 104.1 18.1907 103.417 18.5C102.734 18.7987 101.918 18.948 100.969 18.948H97.4331L97.9611 18.404V22.5H96.7771ZM104.425 22.5L101.545 18.436H102.825L105.721 22.5H104.425ZM97.9611 18.5L97.4331 17.94H100.937C102.057 17.94 102.905 17.6947 103.481 17.204C104.068 16.7133 104.361 16.0253 104.361 15.14C104.361 14.244 104.068 13.5507 103.481 13.06C102.905 12.5693 102.057 12.324 100.937 12.324H97.4331L97.9611 11.764V18.5ZM110.855 22.5V18.34L111.127 19.076L106.375 11.3H107.639L111.815 18.132H111.143L115.319 11.3H116.503L111.751 19.076L112.023 18.34V22.5H110.855ZM118.105 22.5V11.3H122.297C123.247 11.3 124.063 11.4547 124.745 11.764C125.428 12.0627 125.951 12.5 126.313 13.076C126.687 13.6413 126.873 14.3293 126.873 15.14C126.873 15.9293 126.687 16.612 126.313 17.188C125.951 17.7533 125.428 18.1907 124.745 18.5C124.063 18.8093 123.247 18.964 122.297 18.964H118.761L119.289 18.404V22.5H118.105ZM119.289 18.5L118.761 17.924H122.265C123.385 17.924 124.233 17.684 124.809 17.204C125.396 16.7133 125.689 16.0253 125.689 15.14C125.689 14.244 125.396 13.5507 124.809 13.06C124.233 12.5693 123.385 12.324 122.265 12.324H118.761L119.289 11.764V18.5ZM131.234 22.5V12.324H127.298V11.3H136.354V12.324H132.418V22.5H131.234ZM142.986 22.596C142.143 22.596 141.359 22.4573 140.634 22.18C139.919 21.892 139.295 21.492 138.762 20.98C138.239 20.4573 137.828 19.8547 137.53 19.172C137.242 18.4787 137.098 17.7213 137.098 16.9C137.098 16.0787 137.242 15.3267 137.53 14.644C137.828 13.9507 138.239 13.348 138.762 12.836C139.295 12.3133 139.919 11.9133 140.634 11.636C141.348 11.348 142.132 11.204 142.986 11.204C143.828 11.204 144.607 11.348 145.322 11.636C146.036 11.9133 146.655 12.308 147.178 12.82C147.711 13.332 148.122 13.9347 148.41 14.628C148.708 15.3213 148.858 16.0787 148.858 16.9C148.858 17.7213 148.708 18.4787 148.41 19.172C148.122 19.8653 147.711 20.468 147.178 20.98C146.655 21.492 146.036 21.892 145.322 22.18C144.607 22.4573 143.828 22.596 142.986 22.596ZM142.986 21.54C143.658 21.54 144.276 21.428 144.842 21.204C145.418 20.9693 145.914 20.644 146.33 20.228C146.756 19.8013 147.087 19.3107 147.322 18.756C147.556 18.1907 147.674 17.572 147.674 16.9C147.674 16.228 147.556 15.6147 147.322 15.06C147.087 14.4947 146.756 14.004 146.33 13.588C145.914 13.1613 145.418 12.836 144.842 12.612C144.276 12.3773 143.658 12.26 142.986 12.26C142.314 12.26 141.69 12.3773 141.114 12.612C140.538 12.836 140.036 13.1613 139.61 13.588C139.194 14.004 138.863 14.4947 138.618 15.06C138.383 15.6147 138.266 16.228 138.266 16.9C138.266 17.5613 138.383 18.1747 138.618 18.74C138.863 19.3053 139.194 19.8013 139.61 20.228C140.036 20.644 140.538 20.9693 141.114 21.204C141.69 21.428 142.314 21.54 142.986 21.54Z" fill="#B71C1C"/>
<path d="M46.02 37.0428L49.22 30.0428H49.95L53.15 37.0428H52.37L49.43 30.4728H49.73L46.79 37.0428H46.02ZM47.28 35.1728L47.5 34.5728H51.57L51.79 35.1728H47.28ZM59.2803 37.1028C58.747 37.1028 58.2536 37.0162 57.8003 36.8428C57.3536 36.6628 56.9636 36.4128 56.6303 36.0928C56.3036 35.7728 56.047 35.3962 55.8603 34.9628C55.6803 34.5295 55.5903 34.0562 55.5903 33.5428C55.5903 33.0295 55.6803 32.5562 55.8603 32.1228C56.047 31.6895 56.307 31.3128 56.6403 30.9928C56.9736 30.6728 57.3636 30.4262 57.8103 30.2528C58.2636 30.0728 58.757 29.9828 59.2903 29.9828C59.8236 29.9828 60.3103 30.0662 60.7503 30.2328C61.197 30.3995 61.577 30.6528 61.8903 30.9928L61.4303 31.4628C61.137 31.1695 60.8136 30.9595 60.4603 30.8328C60.107 30.7062 59.727 30.6428 59.3203 30.6428C58.887 30.6428 58.487 30.7162 58.1203 30.8628C57.7603 31.0028 57.4436 31.2062 57.1703 31.4728C56.9036 31.7328 56.6936 32.0395 56.5403 32.3928C56.3936 32.7395 56.3203 33.1228 56.3203 33.5428C56.3203 33.9562 56.3936 34.3395 56.5403 34.6928C56.6936 35.0462 56.9036 35.3562 57.1703 35.6228C57.4436 35.8828 57.7603 36.0862 58.1203 36.2328C58.487 36.3728 58.8836 36.4428 59.3103 36.4428C59.7103 36.4428 60.087 36.3828 60.4403 36.2628C60.8003 36.1428 61.1303 35.9395 61.4303 35.6528L61.8503 36.2128C61.517 36.5062 61.127 36.7295 60.6803 36.8828C60.2336 37.0295 59.767 37.1028 59.2803 37.1028ZM61.1403 36.1228V33.5428H61.8503V36.2128L61.1403 36.1228ZM66.6047 33.1728H70.3047V33.8028H66.6047V33.1728ZM66.6847 36.4028H70.8947V37.0428H65.9447V30.0428H70.7447V30.6828H66.6847V36.4028ZM74.6341 37.0428V30.0428H75.2441L80.0741 36.1228H79.7541V30.0428H80.4841V37.0428H79.8741L75.0541 30.9628H75.3741V37.0428H74.6341ZM87.8089 37.1028C87.2822 37.1028 86.7956 37.0162 86.3489 36.8428C85.9022 36.6628 85.5156 36.4128 85.1889 36.0928C84.8622 35.7728 84.6056 35.3962 84.4189 34.9628C84.2389 34.5295 84.1489 34.0562 84.1489 33.5428C84.1489 33.0295 84.2389 32.5562 84.4189 32.1228C84.6056 31.6895 84.8622 31.3128 85.1889 30.9928C85.5222 30.6728 85.9122 30.4262 86.3589 30.2528C86.8056 30.0728 87.2922 29.9828 87.8189 29.9828C88.3256 29.9828 88.8022 30.0695 89.2489 30.2428C89.6956 30.4095 90.0722 30.6628 90.3789 31.0028L89.9089 31.4728C89.6222 31.1795 89.3056 30.9695 88.9589 30.8428C88.6122 30.7095 88.2389 30.6428 87.8389 30.6428C87.4189 30.6428 87.0289 30.7162 86.6689 30.8628C86.3089 31.0028 85.9956 31.2062 85.7289 31.4728C85.4622 31.7328 85.2522 32.0395 85.0989 32.3928C84.9522 32.7395 84.8789 33.1228 84.8789 33.5428C84.8789 33.9628 84.9522 34.3495 85.0989 34.7028C85.2522 35.0495 85.4622 35.3562 85.7289 35.6228C85.9956 35.8828 86.3089 36.0862 86.6689 36.2328C87.0289 36.3728 87.4189 36.4428 87.8389 36.4428C88.2389 36.4428 88.6122 36.3762 88.9589 36.2428C89.3056 36.1095 89.6222 35.8962 89.9089 35.6028L90.3789 36.0728C90.0722 36.4128 89.6956 36.6695 89.2489 36.8428C88.8022 37.0162 88.3222 37.1028 87.8089 37.1028ZM95.4799 37.0428V34.4428L95.6499 34.9028L92.6799 30.0428H93.4699L96.0799 34.3128H95.6599L98.2699 30.0428H99.0099L96.0399 34.9028L96.2099 34.4428V37.0428H95.4799Z" fill="#1A1A1A"/>
</svg>
