<svg width="100" height="100" viewBox="0 0 100 100" fill="none" xmlns="http://www.w3.org/2000/svg">
<rect width="100" height="100" rx="25" fill="white"/>
<path d="M30.4381 44.3634C28.6499 46.2684 27.3257 48.5377 26.5339 50.9848C24.2196 52.0016 21.2015 57.0854 21.2015 57.0854C21.6814 47.7052 27.9139 45.1616 30.4381 44.3634Z" fill="#B71C1C"/>
<path d="M37.5062 40.4003C36.272 40.9628 35.1341 41.6506 34.1013 42.4424C33.6159 42.3899 33.1456 42.3578 32.6891 42.346C25.7625 42.1499 22.1422 46.1934 22.0329 46.3166C27.9771 34.0875 37.5062 40.4003 37.5062 40.4003Z" fill="#B71C1C"/>
<path d="M62.9384 44.6184C62.9384 44.6184 62.2012 45.347 61.1898 44.7984C60.1784 44.2499 60.5191 42.8131 60.5191 42.8131C62.258 43.3145 62.9384 44.6184 62.9384 44.6184Z" fill="#B71C1C"/>
<path d="M61.9248 35.2157C60.6691 34.3061 59.1681 33.3429 57.4892 32.4997C57.1399 32.324 56.782 32.1536 56.4177 31.9897C56.4177 31.9897 56.4177 31.9886 56.4167 31.9875C56.4167 31.9875 56.4038 31.9747 56.3792 31.95C56.3395 31.9061 56.2956 31.8611 56.2517 31.8161C56.2463 31.8108 56.242 31.8054 56.2367 31.8C55.8049 31.3297 54.682 29.984 53.8399 27.8787C53.3235 26.5866 52.9121 25.0084 52.8296 23.172C52.8296 23.172 54.5942 26.1966 56.2581 28.1883C57.8963 30.149 61.8037 35.0625 61.9248 35.2157Z" fill="#B71C1C"/>
<path d="M53.4853 30.7608C48.8107 28.7101 47.4286 27.2487 47.4286 27.2487C47.4286 27.2487 44.9515 25.2451 42.5976 22.0373C42.1337 21.4041 41.674 20.7248 41.2401 20.0049C39.5312 17.1753 38.2048 13.7157 38.4726 10C38.4726 10 40.5244 15.4964 43.9251 19.4156C44.0515 19.5602 44.179 19.7038 44.3086 19.8441C44.7458 20.3177 45.2633 20.8588 45.8397 21.4481C47.6054 23.2555 49.9068 25.5098 52.0271 27.5958C52.1246 27.8915 52.2317 28.1851 52.3474 28.4755C52.6999 29.3562 53.0996 30.1201 53.4853 30.7608Z" fill="#B71C1C"/>
<path d="M68.7058 63.3371C67.9119 63.9425 65.4723 63.8857 63.7901 62.5046C62.9148 61.7868 62.1155 60.1882 61.2573 58.4268C60.8052 58.7707 60.3455 59.1404 59.8891 59.5304L59.8859 59.5325L59.8838 59.5347C59.857 59.5572 59.8291 59.5807 59.8023 59.6032C59.8109 59.6161 59.8184 59.6289 59.8259 59.6418C59.8655 59.7082 59.9052 59.7757 59.9438 59.8432C59.9448 59.8454 59.9459 59.8464 59.9459 59.8475C59.993 59.9279 60.038 60.0093 60.082 60.0918C60.0852 60.0982 60.0884 60.1047 60.0927 60.1111C60.1323 60.185 60.1709 60.2611 60.2095 60.3371C60.2545 60.4261 60.2995 60.5161 60.3423 60.6082C60.3423 60.6082 61.8798 63.5321 56.4595 63.1293C56.4595 63.1293 58.0045 65.2657 62.3909 63.9425C62.3909 63.9425 62.6169 65.5496 61.5969 66.816C60.5759 68.0824 59.9513 68.8581 59.9513 69.8031C59.9513 70.7491 60.1784 71.6941 61.7094 72.9423C61.7094 72.9423 60.5566 70.7866 61.8798 69.7849C63.2041 68.782 66.5501 66.9863 67.0794 64.7546C67.0794 64.7546 67.8358 65.871 66.5319 67.8928C66.6004 67.8478 68.874 66.3156 68.7058 63.3371Z" fill="#B71C1C"/>
<path d="M34.3273 32.7429C32.732 32.3315 30.2763 31.5129 27.8828 29.9829C27.2453 29.5758 26.6121 29.1183 26.0014 28.604C24.9621 27.7308 23.9871 26.6948 23.16 25.468C23.2275 25.5151 24.6632 26.5405 27.1778 27.5144C27.9374 27.808 28.7946 28.0972 29.7428 28.3544C30.4595 28.5483 31.2277 28.724 32.0442 28.8687C32.7395 28.9919 33.4081 29.1558 34.0477 29.3497L34.1581 31.6179C34.1613 31.6822 34.1859 32.1129 34.3273 32.7429Z" fill="#B71C1C"/>
<path d="M36.3084 38.2467C31.2074 36.15 26.6121 36.7853 26.6121 36.7853C29.0935 34.8707 31.8395 34.3982 33.8591 34.3725C35.4662 35.9625 36.3084 38.2467 36.3084 38.2467Z" fill="#B71C1C"/>
<path d="M24.8968 67.747C24.8957 67.746 24.8946 67.7438 24.8935 67.7417C24.8871 67.732 24.8753 67.7095 24.856 67.6753C24.8528 67.6688 24.8485 67.6613 24.8443 67.6538C24.4457 66.9006 21.9868 61.7428 25.726 55.0744C25.5782 57.004 25.7485 58.9775 26.266 60.9157C24.78 64.7449 24.8935 67.6774 24.8968 67.747Z" fill="#B71C1C"/>
<path d="M61.2627 54.8547C61.0045 55.0315 60.7484 55.2147 60.5009 55.4001C60.1173 54.7926 59.708 54.198 59.258 53.6226C59.9759 53.8776 60.6487 54.3169 61.2627 54.8547Z" fill="#B71C1C"/>
<path d="M70.4768 60.785C70.1618 61.3914 69.5629 61.8253 68.9383 62.0964C67.8529 62.5635 66.7108 62.5282 65.6876 62.136H65.6865C64.7008 61.7578 63.8233 61.0496 63.2094 60.1411C62.9223 59.7436 62.6791 59.2647 62.4487 58.8318C62.2837 58.5254 62.1198 58.22 61.9537 57.9158C61.9848 57.8943 62.0159 57.8718 62.0469 57.8504C62.3973 57.6029 62.7605 57.3629 63.1301 57.1336C63.1569 57.1165 63.1837 57.0993 63.2116 57.0833C63.3401 57.2686 63.4623 57.4518 63.578 57.6329C63.9166 58.1515 64.1801 58.7182 64.5262 59.2314C64.6623 59.4414 64.8112 59.6407 64.9719 59.8272C65.4508 60.3811 66.158 60.7025 66.8876 60.6361C67.1983 60.6082 67.5047 60.5311 67.7876 60.3982C68.0169 60.2868 68.2204 60.1207 68.409 59.915C68.3415 60.1807 68.2301 60.4571 68.0544 60.7014C67.8819 60.935 67.6761 61.1429 67.449 61.3218C67.8626 61.4086 68.2965 61.4289 68.7422 61.3775C69.3293 61.3132 69.9283 61.1493 70.4768 60.785Z" fill="#B71C1C"/>
<path d="M32.3731 49.413C32.3559 49.4569 32.3377 49.5009 32.3184 49.5448C32.0442 50.1769 31.6809 50.7137 31.2867 51.1091C31.2417 51.1541 31.1967 51.198 31.1506 51.2387C31.0617 51.3212 30.9717 51.3941 30.8806 51.4594C30.6813 51.6041 30.4799 51.7112 30.2828 51.7755C29.9945 51.8687 29.717 51.8708 29.4706 51.7637C29.1396 51.6201 28.9135 51.3019 28.7978 50.8755C28.7774 50.8005 28.7603 50.7234 28.7463 50.643C28.6306 49.9594 28.7581 49.0627 29.146 48.168C29.8274 46.5995 31.028 46.1053 31.9306 45.9234C31.6499 46.6702 31.5856 47.4309 31.7163 48.093C31.7892 48.4616 31.922 48.7991 32.1117 49.0862C32.1888 49.2041 32.2767 49.3134 32.3731 49.413Z" fill="#B71C1C"/>
<path d="M31.6809 55.5158C31.6059 55.8511 31.4988 56.1618 31.3649 56.4383C31.261 56.6547 31.1399 56.8497 31.0049 57.02C31.0049 57.02 30.8838 57.1615 30.8838 57.1604V57.1615C30.632 57.4368 30.3395 57.6275 30.0192 57.71C29.9206 57.7368 29.8199 57.7518 29.717 57.7561C29.0774 57.7829 28.4838 57.3811 28.0489 56.7158C27.8839 56.464 27.7414 56.1726 27.6278 55.8533C27.466 55.3947 27.3642 54.8762 27.3406 54.3244C27.2957 53.2444 27.5624 52.2651 28.0189 51.5987C28.3478 52.1376 28.8106 52.5276 29.3806 52.6883C29.6795 52.773 29.986 52.789 30.2913 52.743C30.3417 53.3087 30.4724 53.8294 30.6717 54.2751C30.8002 54.5622 30.9567 54.8183 31.1399 55.0358C31.3006 55.2276 31.4817 55.3894 31.6809 55.5158Z" fill="#B71C1C"/>
<path d="M35.4887 49.833V49.8341C35.0966 51.0169 34.8438 52.1869 34.7323 53.3408C34.7248 53.4212 34.7173 53.5005 34.712 53.5797C34.607 53.7447 34.4945 53.8969 34.3766 54.034C33.8441 54.6565 33.2002 54.979 32.5938 54.8451C32.5927 54.844 32.5916 54.844 32.5906 54.844C32.2831 54.7754 32.0184 54.5954 31.8031 54.3329V54.3319C31.7506 54.2687 31.7013 54.2001 31.6552 54.1272C31.5352 53.9365 31.4356 53.7147 31.3595 53.4705C31.2631 53.1597 31.2031 52.8105 31.186 52.4365C31.2556 52.399 31.3252 52.3573 31.3938 52.3133C31.5352 52.2233 31.6734 52.1205 31.8074 52.0048C32.387 51.5098 32.8863 50.7962 33.2141 49.9402C33.9191 50.1726 34.7195 50.013 35.432 49.5523C35.4545 49.6434 35.4737 49.7366 35.4887 49.833Z" fill="#B71C1C"/>
<path d="M33.1691 62.0536C33.167 62.2614 33.152 62.4607 33.1241 62.6482C33.0749 62.9718 32.9859 63.26 32.8574 63.5021C32.7181 63.7657 32.5327 63.9725 32.3013 64.1075C32.2617 64.131 32.2199 64.1524 32.177 64.1717C31.5802 64.4374 30.8335 64.2157 30.1156 63.6414C29.8842 63.4571 29.656 63.2364 29.4363 62.9835C29.0003 62.4821 28.5996 61.8553 28.2803 61.1396C27.7746 60.0039 27.571 58.8661 27.6546 57.9597C28.216 58.5382 28.921 58.8704 29.6731 58.8393C29.8788 58.8307 30.0781 58.7954 30.2699 58.7365C30.4885 59.3632 30.8131 59.9129 31.2106 60.35C31.4131 60.5739 31.6359 60.7689 31.8738 60.9286C32.2617 61.19 32.6881 61.3582 33.1338 61.4107C33.1584 61.6325 33.1702 61.8478 33.1691 62.0536Z" fill="#B71C1C"/>
<path d="M35.313 58.7536C35.0388 59.5432 34.5534 60.1347 33.9459 60.3607C33.8163 60.4089 33.6813 60.4411 33.5409 60.4539C33.3352 60.4732 33.1327 60.4518 32.9356 60.3939C32.5241 60.2739 32.1384 59.9954 31.8149 59.6C31.6659 59.4189 31.5299 59.2122 31.4099 58.985V58.984C31.2952 58.7686 31.1967 58.534 31.1152 58.2843C31.3081 58.1322 31.487 57.9522 31.6488 57.7486C31.8095 57.5461 31.9531 57.32 32.0763 57.0736C32.2691 56.6943 32.4127 56.2679 32.4995 55.8104C33.2484 55.9015 34.0177 55.5522 34.6691 54.8987C34.6809 55.7322 34.772 56.5518 34.9391 57.3554V57.3565C35.0227 57.7625 35.1266 58.1622 35.2509 58.5597C35.2713 58.625 35.2916 58.6893 35.313 58.7536Z" fill="#B71C1C"/>
<path d="M36.7927 65.6053C36.7337 65.6471 36.6705 65.6846 36.6041 65.7167C36.4273 65.8035 36.2387 65.8496 36.0395 65.8581C35.8573 65.8667 35.6666 65.8442 35.4727 65.7928C35.2263 65.7285 34.9723 65.6171 34.7184 65.466V65.4649C34.2598 65.1885 33.8013 64.7771 33.3856 64.2575C33.6448 63.9778 33.8409 63.6296 33.9706 63.2321C34.0391 63.0253 34.0895 62.8046 34.1216 62.5732C34.1763 62.1864 34.1795 61.7686 34.1323 61.3346C34.8073 61.145 35.387 60.6854 35.8145 60.0511C36.1166 60.7293 36.4798 61.3925 36.9019 62.045C37.1055 62.3578 37.3219 62.6675 37.5523 62.975C37.5555 62.9782 37.5576 62.9814 37.5609 62.9857C37.698 64.1642 37.4355 65.1542 36.7927 65.6053Z" fill="#B71C1C"/>
<path d="M36.3887 69.0981C36.2966 69.2631 36.1777 69.4034 36.0298 69.5149C35.5284 69.8931 34.7934 69.8674 34.0016 69.517C33.7306 69.3992 33.4531 69.2417 33.1756 69.0488C32.5884 68.6438 32.0034 68.0835 31.487 67.3999C30.7863 66.471 30.3385 65.4821 30.1745 64.6164C31.0756 65.0428 31.9884 65.1157 32.7352 64.7449C33.3759 65.586 34.1463 66.1999 34.923 66.5053C35.2252 66.6253 35.5295 66.6971 35.8262 66.7174C36.0148 66.7313 36.2012 66.7238 36.3823 66.6949C36.4027 66.7549 36.4209 66.8138 36.438 66.8728C36.4809 67.0196 36.5162 67.1642 36.5452 67.3056C36.5902 67.5328 36.6169 67.7524 36.6234 67.9603C36.6362 68.4028 36.5602 68.7917 36.3887 69.0981Z" fill="#B71C1C"/>
<path d="M45.1293 74.3791C44.8465 74.5355 44.5208 74.5837 44.1736 74.5355C44.1286 74.5302 44.0836 74.5216 44.0376 74.5119C43.7761 74.4584 43.5051 74.3534 43.2319 74.2012C42.7176 73.9173 42.199 73.4684 41.734 72.893V72.892C41.8347 72.4505 41.8165 71.962 41.6901 71.4552C41.6065 71.1241 41.4769 70.7856 41.3044 70.4481C41.2776 70.3945 41.2487 70.342 41.2187 70.2884C41.9654 69.6981 42.3094 68.6813 42.2387 67.5306C43.4076 68.4992 44.4629 69.4688 45.4047 70.4395C45.4915 70.5263 45.575 70.6141 45.6586 70.702C45.7379 70.9302 45.8032 71.1563 45.8536 71.377C46.1675 72.7473 45.9254 73.9366 45.1293 74.3791Z" fill="#B71C1C"/>
<path d="M40.6358 73.0045C40.5715 73.1491 40.4847 73.2798 40.3765 73.3934C39.9898 73.7995 39.3823 73.9302 38.6805 73.8198C38.2948 73.7598 37.8812 73.6259 37.4612 73.4255C36.873 73.1448 36.272 72.7313 35.7148 72.2009C35.1588 71.6706 34.7173 71.0909 34.4088 70.5188C35.2595 70.6891 36.0416 70.5606 36.6116 70.0849C36.7552 69.9649 36.8794 69.8277 36.9855 69.6756C37.5748 70.1738 38.2166 70.5199 38.8476 70.6859H38.8487C39.0448 70.7384 39.2387 70.7727 39.4305 70.7888C39.7605 70.8177 40.0808 70.792 40.383 70.7095C40.4269 70.8006 40.4676 70.8906 40.504 70.9806C40.8169 71.7466 40.8747 72.4698 40.6358 73.0045Z" fill="#B71C1C"/>
<path d="M40.7397 69.5159C40.7333 69.5213 40.7258 69.5256 40.7194 69.5299V69.5309C40.5833 69.6306 40.4322 69.7034 40.2694 69.7506C40.1376 69.7902 39.9983 69.8117 39.8526 69.8181C39.6308 69.8277 39.3951 69.8009 39.153 69.7399V69.7388C38.5723 69.592 37.9509 69.247 37.3701 68.7392C37.4366 68.4092 37.4516 68.0503 37.4151 67.672C37.398 67.4813 37.368 67.2863 37.3241 67.0881C37.278 66.8706 37.2148 66.6488 37.1377 66.4249C37.878 65.9942 38.3355 65.1467 38.4726 64.1021C39.0823 64.7921 39.7658 65.466 40.5222 66.1217C40.728 66.3006 40.939 66.4774 41.1565 66.6542C41.1908 66.7538 41.2208 66.8524 41.2476 66.951C41.5422 68.0449 41.3869 69.0274 40.7397 69.5159Z" fill="#B71C1C"/>
<path d="M49.821 76.6816C49.8275 76.9076 49.8189 77.1251 49.7953 77.3308C49.6935 78.2105 49.3153 78.8962 48.6853 79.1769C48.6361 79.1983 48.5868 79.2176 48.5364 79.2347C48.4914 79.2487 48.4464 79.2615 48.4004 79.2712C48.2407 79.3076 48.0746 79.3172 47.9054 79.3033C47.7457 79.2915 47.5818 79.2583 47.4168 79.2047C46.6722 78.9658 45.8986 78.324 45.2825 77.4123C45.47 76.7898 45.5011 76.073 45.3736 75.3284C45.3704 75.3026 45.3661 75.2769 45.3597 75.2512C45.5 75.1998 45.635 75.1344 45.7625 75.053C45.9018 74.9641 46.0282 74.8612 46.1407 74.7444C46.7354 74.1337 46.9764 73.1566 46.865 72.0466C48.1079 73.5209 49.0903 74.9941 49.8093 76.463C49.8146 76.5369 49.8189 76.6098 49.821 76.6816Z" fill="#B71C1C"/>
<path d="M51.0371 84.6775C50.9578 84.7032 50.8764 84.7214 50.7928 84.73C49.655 84.8522 48.5568 83.3361 48.3146 81.3261C48.3146 81.3261 48.3146 81.3261 48.3146 81.3251C48.3104 81.2951 48.3071 81.2651 48.3039 81.234C48.2643 80.8665 48.2568 80.5086 48.2761 80.169C48.3596 80.1637 48.4421 80.154 48.5246 80.139C48.7121 80.1069 48.8943 80.0512 49.0711 79.9729C49.7793 79.6569 50.2743 79.0119 50.5325 78.1826C50.9128 79.2647 51.1485 80.3447 51.2385 81.4204C51.3403 82.6301 51.2407 83.7218 51.0371 84.6775Z" fill="#B71C1C"/>
<path d="M44.2733 77.484C44.18 77.7487 44.0461 77.9769 43.8715 78.1558C43.774 78.2555 43.6647 78.3401 43.5426 78.4076C43.4076 78.4815 43.2651 78.533 43.114 78.5619C42.8386 78.6144 42.5397 78.5919 42.2301 78.503C41.2562 78.2244 40.1815 77.2826 39.4337 75.9369C39.3319 75.7537 39.2398 75.5694 39.1573 75.3862C39.0437 75.1323 38.9473 74.8784 38.8701 74.6277C39.8858 74.7102 40.7751 74.4327 41.3076 73.7748C41.9526 74.4241 42.6651 74.8987 43.3626 75.158C43.3711 75.2041 43.3808 75.2502 43.3926 75.2962C43.4226 75.2641 43.4536 75.2319 43.4847 75.2019C43.7622 75.2973 44.0365 75.3573 44.3033 75.3798C44.3226 75.4623 44.3397 75.5448 44.3536 75.6262C44.48 76.328 44.4533 76.9741 44.2733 77.484Z" fill="#B71C1C"/>
<path d="M47.3225 81.7033C46.97 82.2786 46.4782 82.6536 45.905 82.7147C45.2879 82.7811 44.6868 82.4725 44.2015 81.9122C43.6808 81.3133 43.2929 80.4272 43.1622 79.4062C43.4954 79.3451 43.8126 79.224 44.1018 79.0397C44.1533 79.0076 44.2026 78.9733 44.2508 78.938C44.4854 78.7644 44.6868 78.5555 44.8529 78.3165C45.5632 79.1962 46.4204 79.8079 47.2722 80.0544C47.2314 80.484 47.2336 80.9372 47.2829 81.4022C47.2936 81.504 47.3064 81.6036 47.3225 81.7033Z" fill="#B71C1C"/>
<path d="M43.2983 82.4233C42.2022 82.6033 40.6755 81.7697 39.5451 80.2729C38.5905 79.0076 38.1684 77.5998 38.3462 76.5873C38.3848 76.6505 38.4233 76.7137 38.463 76.7769C39.4433 78.3198 40.9037 79.284 42.2569 79.4329C42.259 79.4619 42.2622 79.4919 42.2654 79.5208C42.3865 80.6522 42.7647 81.6615 43.2983 82.4233Z" fill="#B71C1C"/>
<path d="M51.1764 66.8642C49.5478 68.8099 45.9865 68.4456 45.9865 68.4456C44.9472 67.4331 43.7954 66.4249 42.5322 65.4232C41.959 64.9689 41.4265 64.506 40.9347 64.0335C40.9347 64.0335 43.9893 64.6764 46.3625 62.975C47.8925 64.3239 49.5596 65.571 51.1764 66.8642Z" fill="#B71C1C"/>
<path d="M45.769 62.4382C42.6286 64.1524 39.213 62.0878 39.1369 62.0418C39.1358 62.0407 39.1358 62.0407 39.1358 62.0407C37.8801 60.4089 37.068 58.6893 36.7069 56.8926C36.7712 56.9708 39.1251 59.8272 42.7626 59.0632C43.6197 60.2986 44.6483 61.4032 45.769 62.4382Z" fill="#B71C1C"/>
<path d="M42.2472 58.2682C41.2422 58.3186 40.3872 58.0936 39.6673 57.7229C39.604 57.6908 39.5408 57.6575 39.4798 57.6222C37.3787 56.4329 36.5066 54.034 36.5066 54.034C36.5259 53.6751 36.6084 53.1758 36.6984 52.713L37.3326 52.4848C38.5369 52.0508 39.7369 51.8451 40.3026 51.7658C40.3776 53.3312 40.6744 54.7251 41.1437 55.9872C41.2937 56.3911 41.4608 56.7801 41.644 57.1583C41.8294 57.5397 42.0308 57.9093 42.2472 58.2682Z" fill="#B71C1C"/>
<path d="M59.2666 78.9037C57.5856 74.5634 49.8403 72.9423 49.8403 72.9423C49.0132 71.7423 48.0296 70.5466 46.8918 69.3574C46.8918 69.3574 49.9432 69.442 51.8782 67.4321C55.4524 70.3634 58.6248 73.6334 59.2666 78.9037Z" fill="#B71C1C"/>
<path d="M59.3845 80.7508C59.4627 90.1289 50.3771 90.2382 50.3771 90.2382C50.5046 90.0978 53.496 86.7496 53.0578 81.3165C52.8778 79.088 52.1589 76.8594 50.9064 74.6416C50.9064 74.6416 56.017 74.3952 59.377 80.3715C59.3813 80.4969 59.3834 80.6233 59.3845 80.7508Z" fill="#B71C1C"/>
<path d="M37.0691 45.5945C36.9802 46.1141 36.7755 46.6777 36.4584 47.2273C36.2516 47.5852 36.0148 47.9055 35.7641 48.1777C35.5573 48.4016 35.3409 48.5934 35.1213 48.7498C34.5363 49.1677 33.932 49.3284 33.4595 49.1419C33.4113 49.1237 33.3652 49.1012 33.3202 49.0755C33.062 48.9266 32.8831 48.6748 32.7824 48.3545C32.7577 48.2773 32.7384 48.197 32.7234 48.1123V48.1113C32.6774 47.8563 32.6731 47.568 32.7106 47.2616L32.7277 47.1352C32.7716 46.8491 32.8509 46.5481 32.9666 46.2438C33.0127 46.1591 33.062 46.0756 33.1156 45.992C33.1156 45.992 36.093 45.6652 36.5259 45.6309L36.6866 45.6181L36.858 45.6063C36.9277 45.602 36.9973 45.5988 37.0691 45.5945Z" fill="#B71C1C"/>
<path d="M75.6175 56.1447C75.6175 56.1447 75.6164 56.1447 75.6153 56.1447C75.6164 56.1458 75.6185 56.1468 75.6217 56.149V56.1479C75.6196 56.1458 75.6185 56.1458 75.6175 56.1447Z" fill="#B71C1C"/>
<path d="M75.6217 56.1479V56.149C75.6185 56.1468 75.6164 56.1458 75.6153 56.1447C75.6164 56.1447 75.6175 56.1447 75.6175 56.1447C75.6185 56.1458 75.6196 56.1458 75.6217 56.1479Z" fill="#B71C1C"/>
<path d="M83.4195 53.3665C83.4195 62.2935 79.9428 70.6849 73.6311 76.9976C69.8265 80.8022 65.2665 83.5761 60.2888 85.18C60.4998 84.6036 60.6702 83.9768 60.7902 83.2943C73.0364 78.8662 81.8124 67.1213 81.8124 53.3665C81.8124 35.8253 67.5412 21.5541 50 21.5541C49.4139 21.5541 48.83 21.5702 48.2514 21.6023C47.8089 21.1588 47.3857 20.7302 46.9893 20.3252C46.9143 20.2491 46.8414 20.1741 46.7697 20.1002C47.8368 19.9984 48.9146 19.947 50 19.947C58.927 19.947 67.3183 23.4237 73.6311 29.7354C79.9428 36.0482 83.4195 44.4395 83.4195 53.3665Z" fill="#B71C1C"/>
<path d="M39.2055 85.0118C34.4248 83.3865 30.0449 80.6726 26.3689 76.9976C20.0572 70.6849 16.5804 62.2935 16.5804 53.3665C16.5804 44.7588 19.8129 36.6493 25.7025 30.4211C26.1225 30.7404 26.5628 31.0468 27.0182 31.3372C27.0289 31.3436 27.0396 31.3511 27.0503 31.3576C21.5636 37.0768 18.1876 44.8349 18.1876 53.3665C18.1876 65.9621 25.545 76.8712 36.1884 82.0215C36.3041 82.1929 36.4252 82.3633 36.5516 82.5315C37.3252 83.5558 38.2326 84.3957 39.2055 85.0118Z" fill="#B71C1C"/>
<path d="M76.285 55.3208C76.3139 55.2308 76.3396 55.1365 76.3632 55.0369L76.0364 54.649C76.2325 54.3544 76.826 53.6655 76.7885 51.7187C76.751 49.7709 76.1264 49.0145 75.37 48.5516C75.3303 48.527 75.2907 48.5066 75.2521 48.4895C75.1364 48.437 75.025 48.4145 74.9189 48.4145C74.6703 48.4145 74.4539 48.5409 74.2964 48.708C74.2857 48.7187 74.275 48.7295 74.2653 48.7412C74.1036 48.9245 74.0093 49.1452 74.0093 49.2984C74.0093 49.2984 69.2254 45.3374 67.7983 44.0795L67.8261 43.787C67.8261 43.787 69.0079 42.737 68.1572 40.1946C67.3065 37.651 63.2416 35.685 63.2416 35.685C63.2416 35.685 63.8041 36.3021 64.4073 37.185C64.4083 37.186 64.4094 37.1882 64.4094 37.1882C64.9483 37.9832 65.5226 38.9903 65.7465 39.9578C65.7465 39.9578 61.3002 35.2971 55.1235 32.8522C49.28 30.539 47.4082 28.7658 47.2239 28.5847C47.4264 28.8344 49.7428 31.6286 53.9492 35.2961C53.8324 35.2339 47.1361 30.8058 40.6594 27.1073C40.279 26.8587 39.9383 26.563 39.6126 26.233C38.8423 25.4509 38.2209 24.5027 37.7226 23.502C37.4505 22.9609 37.2298 22.3502 36.9769 21.7984C35.8595 19.4081 33.9952 17.3338 31.6788 16.0706C32.5231 17.0081 33.2291 18.0324 33.8377 19.1263C34.5341 20.4066 35.0313 21.7105 35.3023 23.0959C35.3945 23.5105 35.5027 23.9262 35.6334 24.3334C35.6409 24.3559 35.6484 24.3773 35.6559 24.3998C34.9702 24.0419 34.2448 23.578 33.4659 23.097C29.2778 20.5116 23.9711 16.5945 21.7714 12.281C21.7714 12.281 21.8239 19.0652 30.5592 24.8809C31.2309 25.3276 31.9531 25.7691 32.7299 26.2008H32.7309C32.9034 26.2973 33.077 26.3926 33.2548 26.4869C44.674 32.5747 51.0907 37.6168 53.7628 39.7092C53.7628 39.7092 53.7617 39.7092 53.7596 39.7092C53.7456 39.7092 53.6942 39.7082 53.6085 39.6996C53.5849 39.6974 53.5592 39.6942 53.5303 39.6899C53.5013 39.6857 53.4703 39.6814 53.4371 39.676C53.3931 39.6685 53.3438 39.6589 53.2913 39.6482C53.2356 39.6364 53.1756 39.6224 53.1103 39.6064C53.0824 39.5989 53.0546 39.5914 53.0256 39.5828C52.9442 39.5603 52.8574 39.5335 52.7631 39.5024C52.7074 39.4832 52.6496 39.4628 52.5896 39.4403C52.4899 39.4028 52.3849 39.3599 52.2746 39.3117C52.2521 39.3021 52.2296 39.2924 52.2071 39.2817C52.1621 39.2614 52.116 39.2399 52.0699 39.2174C51.9767 39.1724 51.8792 39.1242 51.7807 39.0707C51.7303 39.0439 51.6799 39.016 51.6285 38.9871C51.5257 38.9292 51.4207 38.8671 51.3125 38.7996C51.2578 38.7653 51.2032 38.73 51.1475 38.6946C50.8978 38.5307 50.6342 38.341 50.3589 38.1214C50.3589 38.1214 50.8132 39.7339 51.7453 40.7431C51.7453 40.7431 50.6117 40.3146 49.8553 38.9528C49.3132 37.9767 48.4989 37.4935 47.5154 37.1218C47.1264 36.9739 46.7118 36.8443 46.2757 36.7093C46.0732 36.6461 45.7947 36.5571 45.4572 36.4436C44.3183 36.0611 42.5044 35.4011 40.6497 34.5343C39.8837 34.1775 39.1101 33.7843 38.3751 33.3611C38.3751 33.3611 38.3751 33.3611 38.3741 33.3611C37.4034 32.8029 36.5002 32.1922 35.763 31.5408C35.763 31.5408 35.7952 32.2072 36.0973 33.1147C36.0984 33.1147 36.0984 33.1147 36.0984 33.1147C36.2162 33.4704 36.3759 33.8625 36.5923 34.2675C36.6619 34.4004 36.7391 34.5332 36.8216 34.6672C38.0934 37.0232 39.7937 38.9292 41.4115 40.3467C41.9001 40.7753 42.3801 41.1578 42.8397 41.4963C43.2726 41.8146 43.6861 42.0931 44.0697 42.331C44.1254 42.3653 44.1811 42.3985 44.2368 42.4295C44.3493 42.4928 44.4618 42.5495 44.5743 42.602C44.6022 42.6149 44.6311 42.6278 44.659 42.6395C44.7158 42.6642 44.7715 42.6867 44.8283 42.7092C44.9129 42.7413 44.9975 42.7713 45.0822 42.7992C45.1658 42.826 45.2504 42.8506 45.334 42.8731C45.4465 42.902 45.5568 42.9278 45.6672 42.9481C45.7218 42.9588 45.7765 42.9685 45.8311 42.977C45.8772 42.9845 45.9232 42.991 45.9693 42.9974C46.22 43.0295 46.4632 43.0435 46.6936 43.0435C46.9711 43.0435 47.2304 43.0242 47.4639 42.9942C47.5218 42.9867 47.5786 42.9792 47.6332 42.9706C47.7157 42.9578 47.7939 42.9438 47.8679 42.9299C47.9129 42.9213 47.9557 42.9128 47.9975 42.9031C48.0479 42.8924 48.095 42.8817 48.1389 42.871C48.1796 42.8613 48.2182 42.8517 48.2546 42.842C48.3093 42.8281 48.3586 42.8142 48.4014 42.8013C48.4303 42.7928 48.4571 42.7853 48.4807 42.7778C48.575 42.7478 48.6264 42.7285 48.6264 42.7285C48.3778 42.3728 47.1436 41.0667 44.5497 39.7328C44.3825 39.6482 44.2101 39.5614 44.0311 39.4757C43.6197 39.2785 43.2319 39.0567 42.8676 38.821C40.7012 37.4239 39.4016 35.5511 39.3105 35.4182C39.3973 35.5136 40.3562 36.54 42.8783 37.5857C43.189 37.7143 43.4879 37.8321 43.774 37.9435C44.479 38.2167 45.1079 38.446 45.6682 38.685C46.8136 39.1724 47.6686 39.6964 48.2857 40.7046C49.326 42.407 51.0457 43.5974 51.0457 43.5974C50.916 43.6199 50.7585 43.6392 50.5839 43.6542C50.526 43.6595 50.466 43.6649 50.405 43.6692C50.2218 43.6831 50.0257 43.6938 49.8275 43.7024C49.7621 43.7045 49.6957 43.7077 49.6303 43.7099C49.1032 43.7281 48.5921 43.7313 48.3082 43.7313C48.1636 43.7313 48.0779 43.7302 48.0779 43.7302C49.0046 45.167 52.4642 46.5288 52.4642 46.5288C52.4642 46.5288 50.5732 46.4527 48.5128 45.167C46.7022 44.0377 44.3804 43.0681 41.7158 42.7863C41.3472 42.7467 40.9722 42.721 40.5908 42.7092C40.5276 42.707 40.4644 42.706 40.4012 42.706C40.0648 42.706 39.723 42.7317 39.3812 42.7799C38.3719 42.917 37.3626 43.2342 36.4852 43.5835C36.4294 43.6049 36.3748 43.6274 36.3212 43.6488C35.9205 43.8138 35.5498 43.982 35.223 44.1417C35.1555 44.1738 35.0902 44.2059 35.027 44.2381C34.9948 44.2542 34.9638 44.2702 34.9327 44.2852C34.8716 44.3163 34.8116 44.3474 34.7548 44.3774C34.6691 44.4224 34.5877 44.4652 34.5116 44.5059C34.4602 44.5327 34.412 44.5595 34.3659 44.5852C34.2973 44.6227 34.2331 44.6581 34.1763 44.6913C34.1559 44.702 34.1377 44.7127 34.1195 44.7234C34.0659 44.7534 34.0177 44.7813 33.977 44.8059C33.9631 44.8145 33.9502 44.822 33.9373 44.8295C33.9127 44.8445 33.8902 44.8574 33.8709 44.8692C33.8527 44.8799 33.8366 44.8895 33.8238 44.8981C33.8034 44.9099 33.7916 44.9174 33.7863 44.9206C33.7873 44.9206 33.7884 44.9206 33.7884 44.9206C33.7906 44.9195 33.7938 44.9195 33.797 44.9184C33.8088 44.9163 33.8313 44.912 33.8623 44.9056C33.8741 44.9034 33.8859 44.9013 33.8988 44.8992C33.9148 44.8959 33.932 44.8927 33.9513 44.8884C33.9684 44.8852 33.9856 44.882 34.0038 44.8799C34.0156 44.8777 34.0273 44.8756 34.0391 44.8724C34.0788 44.8659 34.1238 44.8574 34.1731 44.8488C34.2148 44.8424 34.2598 44.8349 34.307 44.8263C34.3498 44.8188 34.3948 44.8113 34.443 44.8038C34.4784 44.7984 34.5148 44.7931 34.5523 44.7867C34.5705 44.7834 34.5877 44.7813 34.6059 44.7781C34.6788 44.7674 34.7559 44.7556 34.8363 44.7438C34.9166 44.732 35.0013 44.7202 35.088 44.7084C35.4812 44.6549 35.943 44.6024 36.4412 44.5627C36.4959 44.5584 36.5516 44.5542 36.6073 44.5499C36.6673 44.5456 36.7284 44.5413 36.7894 44.537C36.8827 44.5317 36.9759 44.5263 37.0712 44.522H37.0809C37.0841 44.5209 37.0884 44.5209 37.0916 44.5209C37.1612 44.5167 37.2309 44.5145 37.3005 44.5113C37.533 44.5027 37.7687 44.4974 38.0066 44.4974C38.0559 44.4974 38.1051 44.4974 38.1544 44.4984C38.2669 44.4984 38.3805 44.5017 38.493 44.5049C39.0448 44.5231 39.6158 44.6099 40.203 44.7513C42.0908 45.2066 44.1383 46.2266 46.1868 47.3227C46.7086 47.6013 47.1832 47.8145 47.6107 47.9763C47.7061 48.0116 47.7982 48.0459 47.8882 48.077C47.9793 48.108 48.0661 48.1359 48.1518 48.1627C48.4078 48.242 48.6425 48.302 48.8546 48.347C48.9253 48.362 48.9939 48.3748 49.0593 48.3866C49.4214 48.4509 49.7085 48.4691 49.9175 48.4691C50.0535 48.4691 50.1553 48.4616 50.2239 48.453C50.241 48.4509 50.256 48.4487 50.27 48.4477C50.2893 48.4455 50.3032 48.4423 50.3128 48.4412C50.3182 48.4402 50.3214 48.4391 50.3246 48.4391C50.1039 48.5441 49.8832 48.6212 49.6593 48.678C49.5843 48.6962 49.5093 48.7123 49.4332 48.7273C49.1289 48.7841 48.815 48.8055 48.4775 48.8055C47.3697 48.8055 46.0186 48.5698 43.984 48.5698C43.6636 48.5698 43.3272 48.5752 42.9726 48.5891C39.033 48.738 37.0198 51.4101 36.9694 51.4766C38.3237 50.9891 39.649 50.7705 40.2865 50.6869C40.5351 50.6537 40.6787 50.6409 40.6787 50.6409C40.6787 50.6409 40.6958 50.6398 40.728 50.6398C40.7408 50.6387 40.7558 50.6387 40.773 50.6387C40.8522 50.6366 40.9765 50.6344 41.133 50.6344C41.3612 50.6344 41.659 50.6387 41.9858 50.6559C42.0458 50.6591 42.1058 50.6623 42.1669 50.6666C42.289 50.6741 42.4144 50.6837 42.5397 50.6955C42.6029 50.7019 42.6661 50.7084 42.7294 50.7148C42.7604 50.718 42.7926 50.7223 42.8236 50.7255C42.9501 50.7416 43.0754 50.7587 43.1986 50.7791C43.4451 50.8209 43.6818 50.8734 43.8929 50.9398C45.0908 51.318 47.8882 52.5662 50.9771 52.743C50.9771 52.743 45.3832 53.3226 43.0122 55.6529C43.0197 55.6508 43.0444 55.6433 43.0851 55.6304C43.1011 55.6251 43.1204 55.6197 43.1408 55.6133C43.3776 55.5436 43.9218 55.3904 44.6815 55.2286C44.75 55.2136 44.8208 55.1997 44.8936 55.1847C44.93 55.1772 44.9665 55.1697 45.004 55.1622C45.0779 55.1472 45.154 55.1333 45.2322 55.1183C45.3093 55.1033 45.3886 55.0894 45.469 55.0744C46.5982 54.8719 48.0296 54.694 49.5714 54.694C50.0257 54.694 50.4885 54.709 50.9567 54.7444C51.1132 54.7562 51.2696 54.769 51.4271 54.7851C51.5835 54.8012 51.741 54.8194 51.8985 54.8408C52.056 54.8612 52.2135 54.8847 52.371 54.9104C52.6871 54.9619 53.0021 55.0229 53.316 55.0969C53.4735 55.1333 53.6299 55.1729 53.7853 55.2158C54.2535 55.3433 54.7163 55.4986 55.1706 55.684C55.3967 55.7772 55.6217 55.8779 55.8424 55.9872C56.212 56.1683 56.572 56.3729 56.9213 56.6033C57.0081 56.6601 57.0938 56.719 57.1795 56.7801C57.3413 56.8936 57.4999 57.0126 57.6552 57.139C57.6895 57.1668 57.7238 57.1947 57.7581 57.2225C57.8491 57.2986 57.9391 57.3758 58.0281 57.455C58.0291 57.455 58.0291 57.455 58.0291 57.455C58.6398 56.8968 59.2131 56.4061 59.783 55.9529C59.8377 55.9101 59.8913 55.8672 59.9459 55.8244C59.7713 55.5019 59.5923 55.1869 59.408 54.8826C59.1584 54.469 58.8991 54.0758 58.6281 53.7137C56.5806 50.9773 52.7567 48.9737 52.6378 48.9116C52.7235 48.9245 56.0942 48.797 61.013 49.8812C62.4723 50.2026 64.5208 51.0426 66.4429 52.3444C66.8394 52.6112 67.2304 52.8973 67.6097 53.2005C65.7444 53.4769 63.9712 54.3876 62.4091 55.3754C62.3405 55.4204 62.2719 55.4654 62.2034 55.5104C62.1498 55.5458 62.0962 55.5822 62.0427 55.6186C61.7084 55.8447 61.3805 56.0783 61.0591 56.3204C60.8545 56.4736 60.6509 56.6311 60.4505 56.7908C59.8784 57.2461 59.3245 57.724 58.7834 58.2168C58.7373 58.2586 58.6913 58.3004 58.6463 58.3422L57.9541 59C57.9316 59.0225 57.9081 59.045 57.8845 59.0675C56.5849 60.3211 54.9692 61.3046 53.1649 61.58C52.7771 61.6378 52.3903 61.6657 52.0067 61.6657C51.5878 61.6657 51.1721 61.6325 50.7617 61.5703C50.6589 61.5543 50.556 61.5371 50.4542 61.5178C50.3525 61.4986 50.2507 61.4771 50.1489 61.4546C49.9464 61.4086 49.745 61.3561 49.5457 61.2971C49.445 61.2671 49.3453 61.2361 49.2468 61.2039C48.5525 60.9746 47.8786 60.6693 47.2314 60.3061C47.0472 60.2022 46.8639 60.0939 46.6839 59.9814C46.5939 59.9247 46.504 59.8679 46.415 59.8089C46.3261 59.7511 46.2382 59.6911 46.1504 59.6311C46.0625 59.57 45.9747 59.5089 45.889 59.4468C45.8022 59.3847 45.7165 59.3225 45.6318 59.2582C45.5043 59.1618 45.3779 59.0643 45.2536 58.9647C45.2118 58.9325 45.17 58.8982 45.1293 58.865C45.0468 58.7986 44.9654 58.73 44.884 58.6615C44.8036 58.5929 44.7233 58.5243 44.644 58.4547C44.5497 58.3722 44.4554 58.2875 44.3633 58.2029C44.3001 58.1461 44.2379 58.0883 44.1768 58.0293C44.0622 57.9222 43.9486 57.8129 43.8383 57.7025C43.8008 57.6661 43.7643 57.6297 43.7279 57.5922C43.5822 57.4454 43.4397 57.2965 43.3004 57.1465C43.7033 57.6329 44.1458 58.0861 44.6075 58.5179C46.8168 60.5921 49.5221 62.0321 52.3035 62.0321C52.4921 62.0321 52.6817 62.0257 52.8714 62.0118C52.9656 62.0053 53.061 61.9968 53.1553 61.9861C54.0081 61.8939 54.8653 61.6593 55.7127 61.2596C55.807 61.2157 55.9002 61.1696 55.9945 61.1204C56.0888 61.0721 56.182 61.0218 56.2763 60.9682C56.4627 60.8632 56.6492 60.7486 56.8356 60.6264C57.3916 60.2793 57.9274 59.8314 58.4384 59.3804C58.6538 59.1918 58.8648 59.0011 59.0716 58.819C59.1123 58.7836 59.1531 58.7493 59.1938 58.715C59.708 58.2768 60.2362 57.8525 60.7784 57.4475C60.9937 57.2847 61.2123 57.1261 61.433 56.9718C61.8037 56.7104 62.1809 56.4608 62.5644 56.224C62.5644 56.2229 62.5655 56.2229 62.5655 56.2229C62.6555 56.1672 62.7444 56.1126 62.8344 56.059C62.933 56.0011 63.0337 55.9433 63.1366 55.8844C63.2394 55.8265 63.3434 55.7676 63.4494 55.7097C64.1941 55.3036 65.0244 54.9115 65.8794 54.6212C66.0026 54.5794 66.1247 54.5408 66.248 54.5033C66.3712 54.4658 66.4944 54.4326 66.6176 54.3994C68.2129 53.9719 69.8522 54.3147 69.8522 54.3147C69.8522 54.7465 69.3283 55.0701 69.3283 55.0701C69.6486 55.2115 69.9593 55.3122 70.2433 55.3829C70.5957 55.474 70.6515 55.4579 70.9579 55.5094C70.645 55.8222 70.0483 55.894 70.0483 55.894C70.1586 55.999 70.2818 56.0879 70.4147 56.164C70.4586 56.1897 70.5036 56.2133 70.5497 56.2358C70.7329 56.3247 70.93 56.3922 71.1304 56.4415C71.1807 56.4543 71.2311 56.4651 71.2815 56.4758C71.3318 56.4854 71.3822 56.4951 71.4325 56.5036C71.5579 56.524 71.6822 56.539 71.8043 56.5497C71.8461 56.5529 71.8868 56.5561 71.9275 56.5583C72.055 56.5668 72.1772 56.5701 72.2929 56.5701C72.4472 56.5701 72.5896 56.5647 72.7107 56.5561C72.7836 56.5518 72.8489 56.5465 72.9068 56.5401C72.9068 56.5401 72.8939 57.5043 71.6115 59.0075C71.6115 59.0075 73.9182 58.5661 74.4721 57.079C74.7753 57.7636 74.485 58.805 74.4732 58.8554C75.7846 57.8965 75.7846 56.2765 75.7846 56.2765C76.496 56.9086 76.6653 57.9597 76.6739 58.8961C76.6685 60.0297 76.0792 61.0668 75.4118 61.9775C74.0393 63.8353 71.935 65.8249 72.7204 68.3856C72.1354 65.8228 74.3264 64.0646 75.8339 62.3107C76.6449 61.3711 77.3821 60.2225 77.4785 58.939C77.5781 57.664 77.3392 56.1608 76.285 55.3208ZM63.5062 45.3684C63.5062 45.3684 63.4687 45.4199 63.3905 45.497C63.3712 45.5163 63.3487 45.5377 63.323 45.5602C63.2983 45.5816 63.2705 45.6052 63.2405 45.6299C63.1184 45.7263 62.9534 45.8356 62.7391 45.932C62.6866 45.9566 62.6298 45.9802 62.5698 46.0016C62.4509 46.0466 62.3191 46.0863 62.1755 46.1173C61.958 46.1645 61.7127 46.1934 61.4362 46.1934C60.9659 46.1934 60.4055 46.1099 59.7466 45.8881C59.6523 45.8559 59.5559 45.8216 59.4573 45.7841C59.0641 45.6352 58.6388 45.4381 58.1791 45.1831C58.0634 45.1199 57.9466 45.0524 57.8277 44.9816C57.7077 44.9109 57.5866 44.8359 57.4624 44.7567C57.3392 44.6784 57.2127 44.5959 57.0842 44.5092C56.9567 44.4224 56.8259 44.3324 56.6931 44.237C56.7124 44.2445 56.7734 44.267 56.8634 44.3013C56.8817 44.3077 56.9009 44.3152 56.9213 44.3227C57.1238 44.3977 57.4367 44.5113 57.7709 44.6227C57.8041 44.6334 57.8374 44.6452 57.8716 44.6559C57.9724 44.6892 58.0741 44.7213 58.1749 44.7524C58.2252 44.7684 58.2756 44.7834 58.3249 44.7974C58.3581 44.807 58.3902 44.8167 58.4223 44.8252C58.6002 44.8756 58.7663 44.9174 58.9056 44.9431C58.9313 44.9484 58.9559 44.9527 58.9795 44.9559C59.0502 44.9667 59.1123 44.9731 59.1638 44.9731C59.2163 44.9731 59.257 44.9667 59.2838 44.9527C59.2838 44.9527 58.6281 42.9867 58.0227 42.1799C57.4195 41.3742 55.9335 41.1963 55.252 40.5921C55.2617 40.5942 55.3035 40.6028 55.3742 40.6156C55.3935 40.6199 55.416 40.6231 55.4406 40.6274C55.6013 40.6553 55.8563 40.6928 56.181 40.7206C56.2313 40.7249 56.2827 40.7281 56.3363 40.7324C56.5506 40.7474 56.7884 40.7571 57.0477 40.7571C57.1184 40.7571 57.1924 40.756 57.2663 40.7549C57.3134 40.7539 57.3627 40.7539 57.4142 40.7539C57.7174 40.7539 58.0741 40.7731 58.4588 40.8214C58.5552 40.8331 58.6538 40.8481 58.7534 40.8642C58.8531 40.8803 58.9548 40.8985 59.0566 40.9189C59.1595 40.9392 59.2623 40.9617 59.3663 40.9874C60.3037 41.2146 61.2991 41.6388 62.0812 42.3942C62.2977 42.6031 62.5141 42.8045 62.7273 42.9942C62.7991 43.0574 62.8698 43.1195 62.9405 43.1795C63.0101 43.2395 63.0809 43.2985 63.1505 43.3552C63.2201 43.412 63.2898 43.4677 63.3584 43.5213C63.5308 43.6542 63.6991 43.7763 63.8641 43.8845C63.9294 43.9274 63.9948 43.9681 64.0591 44.0067C64.479 44.2563 64.8669 44.4031 65.2055 44.4031C65.4165 44.4031 65.6072 44.3463 65.7755 44.222C66.5854 43.6199 66.1397 42.4692 66.1162 42.4092C66.1697 42.467 67.5776 44.0227 65.6115 45.5077C65.6115 45.5077 66.9594 47.1213 68.0061 47.8766C68.0061 47.8766 66.5694 47.373 63.5062 45.3684ZM72.55 53.493C72.1932 53.2605 71.7764 53.0548 71.334 52.969C71.334 52.969 71.17 53.2155 71.23 53.4801C71.23 53.4801 71.1379 53.4297 71.0404 53.3333C70.8743 53.1683 70.6911 52.8683 70.9182 52.4473C70.9257 52.4323 70.9343 52.4183 70.9429 52.4033C70.9632 52.3701 70.9847 52.338 71.0082 52.309C71.0318 52.2801 71.0565 52.2523 71.0822 52.2276C71.2397 52.0798 71.4432 52.0101 71.6564 52.0101C71.935 52.0101 72.2307 52.129 72.4589 52.3455C72.4707 52.3562 72.4825 52.368 72.4932 52.3798C72.5264 52.413 72.5575 52.4494 72.5875 52.4869C72.6271 52.5383 72.6625 52.593 72.6946 52.6508C72.7268 52.7098 72.7546 52.7708 72.7782 52.8362C72.7921 52.7473 72.7986 52.6573 72.7986 52.5651C72.7986 51.5398 71.9682 50.7084 70.9429 50.7084C70.0954 50.7084 69.3808 51.2762 69.1601 52.053C69.1118 52.2158 69.0872 52.3873 69.0872 52.5651C69.0872 52.7612 69.1172 52.9498 69.174 53.1265C69.2072 53.2337 69.2511 53.3365 69.3025 53.434C69.1815 53.4222 68.9018 53.3451 68.6554 53.1147C68.4251 52.9015 68.2247 52.5533 68.214 52.0026C68.2129 51.9866 68.2129 51.9694 68.2129 51.9523C68.2129 50.7169 69.2147 49.7152 70.4511 49.7152C70.4511 49.7152 70.4779 49.713 70.5261 49.713C70.5679 49.713 70.6268 49.7152 70.6975 49.7227C70.7211 49.7248 70.7468 49.728 70.7736 49.7312C70.9065 49.7505 71.0736 49.7869 71.26 49.8577C71.2975 49.8716 71.3361 49.8866 71.3747 49.9037C71.4711 49.9466 71.5729 49.998 71.6757 50.0602C71.7379 50.0977 71.8011 50.1394 71.8643 50.1855C71.8975 50.2091 71.9307 50.2348 71.9639 50.2616C72.0164 50.3023 72.0689 50.3462 72.1204 50.3944C72.1418 50.4137 72.1632 50.4341 72.1847 50.4555C72.2704 50.538 72.355 50.6291 72.4397 50.7319C72.4814 50.7823 72.5232 50.8359 72.565 50.8926C73.0814 51.5944 73.5346 52.714 73.7039 54.4947C73.7039 54.4947 73.2389 53.9419 72.55 53.493ZM75.6217 56.149C75.6185 56.1468 75.6164 56.1458 75.6153 56.1447C75.6164 56.1447 75.6175 56.1447 75.6175 56.1447C75.6185 56.1458 75.6196 56.1458 75.6217 56.1479V56.149Z" fill="#B71C1C"/>
</svg>
